<?xml version="1.0" encoding="UTF-8" standalone="no"?>
<!DOCTYPE svg PUBLIC "-//W3C//DTD SVG 1.1//EN"
 "http://www.w3.org/Graphics/SVG/1.1/DTD/svg11.dtd">
<!-- Generated by graphviz version 2.36.0 (20140111.2315)
 -->
<!-- Title: models_diagram Pages: 1 -->
<svg width="1908pt" height="1250pt"
 viewBox="0.00 0.00 1908.00 1250.00" xmlns="http://www.w3.org/2000/svg" xmlns:xlink="http://www.w3.org/1999/xlink">
<g id="graph0" class="graph" transform="scale(1 1) rotate(0) translate(4 1246)">
<title>models_diagram</title>
<polygon fill="none" stroke="none" points="-4,4 -4,-1246 1904,-1246 1904,4 -4,4"/>
<!-- _diagram_info -->
<g id="node1" class="node"><title>_diagram_info</title>
<text text-anchor="start" x="8" y="-1190.6" font-family="Times,serif" font-size="13.00">Models diagram</text>
<text text-anchor="start" x="8" y="-1176.6" font-family="Times,serif" font-size="13.00">Date: Mar 04 2016 &#45; 11:12</text>
<text text-anchor="start" x="8" y="-1162.6" font-family="Times,serif" font-size="13.00">Migration version: 20160223191838</text>
<text text-anchor="start" x="8" y="-1148.6" font-family="Times,serif" font-size="13.00">Generated by RailRoady 1.4.2</text>
<text text-anchor="start" x="8" y="-1134.6" font-family="Times,serif" font-size="13.00">http://railroady.prestonlee.com</text>
</g>
<!-- Option -->
<g id="node2" class="node"><title>Option</title>
<path fill="none" stroke="black" d="M244,-1120.5C244,-1120.5 464,-1120.5 464,-1120.5 470,-1120.5 476,-1126.5 476,-1132.5 476,-1132.5 476,-1199.5 476,-1199.5 476,-1205.5 470,-1211.5 464,-1211.5 464,-1211.5 244,-1211.5 244,-1211.5 238,-1211.5 232,-1205.5 232,-1199.5 232,-1199.5 232,-1132.5 232,-1132.5 232,-1126.5 238,-1120.5 244,-1120.5"/>
<text text-anchor="middle" x="354" y="-1196.3" font-family="Times,serif" font-size="14.00">Option</text>
<polyline fill="none" stroke="black" points="232,-1188.5 476,-1188.5 "/>
<text text-anchor="start" x="240" y="-1173.3" font-family="Times,serif" font-size="14.00">id :integer</text>
<text text-anchor="start" x="240" y="-1158.3" font-family="Times,serif" font-size="14.00">option :character varying</text>
<text text-anchor="start" x="240" y="-1143.3" font-family="Times,serif" font-size="14.00">created_at :timestamp without time zone</text>
<text text-anchor="start" x="240" y="-1128.3" font-family="Times,serif" font-size="14.00">updated_at :timestamp without time zone</text>
</g>
<!-- Category -->
<g id="node3" class="node"><title>Category</title>
<path fill="none" stroke="black" d="M184,-457C184,-457 434,-457 434,-457 440,-457 446,-463 446,-469 446,-469 446,-611 446,-611 446,-617 440,-623 434,-623 434,-623 184,-623 184,-623 178,-623 172,-617 172,-611 172,-611 172,-469 172,-469 172,-463 178,-457 184,-457"/>
<text text-anchor="middle" x="309" y="-607.8" font-family="Times,serif" font-size="14.00">Category</text>
<polyline fill="none" stroke="black" points="172,-600 446,-600 "/>
<text text-anchor="start" x="180" y="-584.8" font-family="Times,serif" font-size="14.00">id :integer</text>
<text text-anchor="start" x="180" y="-569.8" font-family="Times,serif" font-size="14.00">name :character varying</text>
<text text-anchor="start" x="180" y="-554.8" font-family="Times,serif" font-size="14.00">description :character varying</text>
<text text-anchor="start" x="180" y="-539.8" font-family="Times,serif" font-size="14.00">created_at :timestamp without time zone</text>
<text text-anchor="start" x="180" y="-524.8" font-family="Times,serif" font-size="14.00">updated_at :timestamp without time zone</text>
<text text-anchor="start" x="180" y="-509.8" font-family="Times,serif" font-size="14.00">icon_file_name :character varying</text>
<text text-anchor="start" x="180" y="-494.8" font-family="Times,serif" font-size="14.00">icon_content_type :character varying</text>
<text text-anchor="start" x="180" y="-479.8" font-family="Times,serif" font-size="14.00">icon_file_size :integer</text>
<text text-anchor="start" x="180" y="-464.8" font-family="Times,serif" font-size="14.00">icon_updated_at :timestamp without time zone</text>
</g>
<!-- StoryCategory -->
<g id="node7" class="node"><title>StoryCategory</title>
<path fill="none" stroke="black" d="M199,-8C199,-8 419,-8 419,-8 425,-8 431,-14 431,-20 431,-20 431,-102 431,-102 431,-108 425,-114 419,-114 419,-114 199,-114 199,-114 193,-114 187,-108 187,-102 187,-102 187,-20 187,-20 187,-14 193,-8 199,-8"/>
<text text-anchor="middle" x="309" y="-98.8" font-family="Times,serif" font-size="14.00">StoryCategory</text>
<polyline fill="none" stroke="black" points="187,-91 431,-91 "/>
<text text-anchor="start" x="195" y="-75.8" font-family="Times,serif" font-size="14.00">id :integer</text>
<text text-anchor="start" x="195" y="-60.8" font-family="Times,serif" font-size="14.00">story_id :integer</text>
<text text-anchor="start" x="195" y="-45.8" font-family="Times,serif" font-size="14.00">category_id :integer</text>
<text text-anchor="start" x="195" y="-30.8" font-family="Times,serif" font-size="14.00">created_at :timestamp without time zone</text>
<text text-anchor="start" x="195" y="-15.8" font-family="Times,serif" font-size="14.00">updated_at :timestamp without time zone</text>
</g>
<!-- Category&#45;&gt;StoryCategory -->
<g id="edge1" class="edge"><title>Category&#45;&gt;StoryCategory</title>
<path fill="none" stroke="#376c1b" d="M309,-448.523C309,-353.568 309,-206.84 309,-124.163"/>
<ellipse fill="none" stroke="#376c1b" cx="309" cy="-452.729" rx="4" ry="4"/>
<polygon fill="#376c1b" stroke="#376c1b" points="309,-124.161 313.5,-114.161 309,-119.161 309,-114.161 309,-114.161 309,-114.161 309,-119.161 304.5,-114.161 309,-124.161 309,-124.161"/>
</g>
<!-- Story -->
<g id="node13" class="node"><title>Story</title>
<path fill="none" stroke="black" d="M396.5,-161C396.5,-161 653.5,-161 653.5,-161 659.5,-161 665.5,-167 665.5,-173 665.5,-173 665.5,-405 665.5,-405 665.5,-411 659.5,-417 653.5,-417 653.5,-417 396.5,-417 396.5,-417 390.5,-417 384.5,-411 384.5,-405 384.5,-405 384.5,-173 384.5,-173 384.5,-167 390.5,-161 396.5,-161"/>
<text text-anchor="middle" x="525" y="-401.8" font-family="Times,serif" font-size="14.00">Story</text>
<polyline fill="none" stroke="black" points="384.5,-394 665.5,-394 "/>
<text text-anchor="start" x="392.5" y="-378.8" font-family="Times,serif" font-size="14.00">id :integer</text>
<text text-anchor="start" x="392.5" y="-363.8" font-family="Times,serif" font-size="14.00">title :character varying</text>
<text text-anchor="start" x="392.5" y="-348.8" font-family="Times,serif" font-size="14.00">description :character varying</text>
<text text-anchor="start" x="392.5" y="-333.8" font-family="Times,serif" font-size="14.00">language :character varying</text>
<text text-anchor="start" x="392.5" y="-318.8" font-family="Times,serif" font-size="14.00">price :double precision</text>
<text text-anchor="start" x="392.5" y="-303.8" font-family="Times,serif" font-size="14.00">release_date :date</text>
<text text-anchor="start" x="392.5" y="-288.8" font-family="Times,serif" font-size="14.00">published :boolean</text>
<text text-anchor="start" x="392.5" y="-273.8" font-family="Times,serif" font-size="14.00">num_purchased :integer</text>
<text text-anchor="start" x="392.5" y="-258.8" font-family="Times,serif" font-size="14.00">profile_id :integer</text>
<text text-anchor="start" x="392.5" y="-243.8" font-family="Times,serif" font-size="14.00">created_at :timestamp without time zone</text>
<text text-anchor="start" x="392.5" y="-228.8" font-family="Times,serif" font-size="14.00">updated_at :timestamp without time zone</text>
<text text-anchor="start" x="392.5" y="-213.8" font-family="Times,serif" font-size="14.00">cover_file_name :character varying</text>
<text text-anchor="start" x="392.5" y="-198.8" font-family="Times,serif" font-size="14.00">cover_content_type :character varying</text>
<text text-anchor="start" x="392.5" y="-183.8" font-family="Times,serif" font-size="14.00">cover_file_size :integer</text>
<text text-anchor="start" x="392.5" y="-168.8" font-family="Times,serif" font-size="14.00">cover_updated_at :timestamp without time zone</text>
</g>
<!-- Category&#45;&gt;Story -->
<g id="edge2" class="edge"><title>Category&#45;&gt;Story</title>
<path fill="none" stroke="#fd34ae" d="M387.132,-448.931C393.94,-441.083 400.919,-433.037 407.951,-424.932"/>
<polygon fill="#fd34ae" stroke="#fd34ae" points="386.878,-449.224 376.926,-453.829 383.602,-453.001 380.325,-456.778 380.325,-456.778 380.325,-456.778 383.602,-453.001 383.724,-459.727 386.878,-449.224 386.878,-449.224"/>
<polygon fill="#fd34ae" stroke="#fd34ae" points="408.151,-424.701 418.103,-420.096 411.427,-420.924 414.704,-417.147 414.704,-417.147 414.704,-417.147 411.427,-420.924 411.304,-414.198 408.151,-424.701 408.151,-424.701"/>
</g>
<!-- DiscountUserGroup -->
<g id="node4" class="node"><title>DiscountUserGroup</title>
<path fill="none" stroke="black" d="M1374,-8C1374,-8 1594,-8 1594,-8 1600,-8 1606,-14 1606,-20 1606,-20 1606,-102 1606,-102 1606,-108 1600,-114 1594,-114 1594,-114 1374,-114 1374,-114 1368,-114 1362,-108 1362,-102 1362,-102 1362,-20 1362,-20 1362,-14 1368,-8 1374,-8"/>
<text text-anchor="middle" x="1484" y="-98.8" font-family="Times,serif" font-size="14.00">DiscountUserGroup</text>
<polyline fill="none" stroke="black" points="1362,-91 1606,-91 "/>
<text text-anchor="start" x="1370" y="-75.8" font-family="Times,serif" font-size="14.00">id :integer</text>
<text text-anchor="start" x="1370" y="-60.8" font-family="Times,serif" font-size="14.00">user_group_id :integer</text>
<text text-anchor="start" x="1370" y="-45.8" font-family="Times,serif" font-size="14.00">discount_id :integer</text>
<text text-anchor="start" x="1370" y="-30.8" font-family="Times,serif" font-size="14.00">created_at :timestamp without time zone</text>
<text text-anchor="start" x="1370" y="-15.8" font-family="Times,serif" font-size="14.00">updated_at :timestamp without time zone</text>
</g>
<!-- Profile -->
<g id="node5" class="node"><title>Profile</title>
<path fill="none" stroke="black" d="M1000,-457C1000,-457 1220,-457 1220,-457 1226,-457 1232,-463 1232,-469 1232,-469 1232,-611 1232,-611 1232,-617 1226,-623 1220,-623 1220,-623 1000,-623 1000,-623 994,-623 988,-617 988,-611 988,-611 988,-469 988,-469 988,-463 994,-457 1000,-457"/>
<text text-anchor="middle" x="1110" y="-607.8" font-family="Times,serif" font-size="14.00">Profile</text>
<polyline fill="none" stroke="black" points="988,-600 1232,-600 "/>
<text text-anchor="start" x="996" y="-584.8" font-family="Times,serif" font-size="14.00">id :integer</text>
<text text-anchor="start" x="996" y="-569.8" font-family="Times,serif" font-size="14.00">name :character varying</text>
<text text-anchor="start" x="996" y="-554.8" font-family="Times,serif" font-size="14.00">avatar :character varying</text>
<text text-anchor="start" x="996" y="-539.8" font-family="Times,serif" font-size="14.00">description :character varying</text>
<text text-anchor="start" x="996" y="-524.8" font-family="Times,serif" font-size="14.00">signature :character varying</text>
<text text-anchor="start" x="996" y="-509.8" font-family="Times,serif" font-size="14.00">user_id :integer</text>
<text text-anchor="start" x="996" y="-494.8" font-family="Times,serif" font-size="14.00">created_at :timestamp without time zone</text>
<text text-anchor="start" x="996" y="-479.8" font-family="Times,serif" font-size="14.00">updated_at :timestamp without time zone</text>
<text text-anchor="start" x="996" y="-464.8" font-family="Times,serif" font-size="14.00">profile_status :boolean</text>
</g>
<!-- Profile&#45;&gt;Story -->
<g id="edge3" class="edge"><title>Profile&#45;&gt;Story</title>
<path fill="none" stroke="#eadb12" d="M980.36,-456.673C979.906,-456.447 979.453,-456.223 979,-456 881.027,-407.746 765.345,-365.656 675.274,-335.931"/>
<ellipse fill="none" stroke="#eadb12" cx="984.17" cy="-458.608" rx="4.00002" ry="4.00002"/>
<polygon fill="#eadb12" stroke="#eadb12" points="675.033,-335.852 666.937,-328.456 670.283,-334.292 665.533,-332.732 665.533,-332.732 665.533,-332.732 670.283,-334.292 664.129,-337.007 675.033,-335.852 675.033,-335.852"/>
</g>
<!-- Friendship -->
<g id="node6" class="node"><title>Friendship</title>
<path fill="none" stroke="black" d="M476,-479.5C476,-479.5 696,-479.5 696,-479.5 702,-479.5 708,-485.5 708,-491.5 708,-491.5 708,-588.5 708,-588.5 708,-594.5 702,-600.5 696,-600.5 696,-600.5 476,-600.5 476,-600.5 470,-600.5 464,-594.5 464,-588.5 464,-588.5 464,-491.5 464,-491.5 464,-485.5 470,-479.5 476,-479.5"/>
<text text-anchor="middle" x="586" y="-585.3" font-family="Times,serif" font-size="14.00">Friendship</text>
<polyline fill="none" stroke="black" points="464,-577.5 708,-577.5 "/>
<text text-anchor="start" x="472" y="-562.3" font-family="Times,serif" font-size="14.00">id :integer</text>
<text text-anchor="start" x="472" y="-547.3" font-family="Times,serif" font-size="14.00">user_id :integer</text>
<text text-anchor="start" x="472" y="-532.3" font-family="Times,serif" font-size="14.00">friend_id :integer</text>
<text text-anchor="start" x="472" y="-517.3" font-family="Times,serif" font-size="14.00">request_friendship_id :integer</text>
<text text-anchor="start" x="472" y="-502.3" font-family="Times,serif" font-size="14.00">created_at :timestamp without time zone</text>
<text text-anchor="start" x="472" y="-487.3" font-family="Times,serif" font-size="14.00">updated_at :timestamp without time zone</text>
</g>
<!-- Administrator -->
<g id="node8" class="node"><title>Administrator</title>
<path fill="none" stroke="black" d="M1292,-1128C1292,-1128 1512,-1128 1512,-1128 1518,-1128 1524,-1134 1524,-1140 1524,-1140 1524,-1192 1524,-1192 1524,-1198 1518,-1204 1512,-1204 1512,-1204 1292,-1204 1292,-1204 1286,-1204 1280,-1198 1280,-1192 1280,-1192 1280,-1140 1280,-1140 1280,-1134 1286,-1128 1292,-1128"/>
<text text-anchor="middle" x="1402" y="-1188.8" font-family="Times,serif" font-size="14.00">Administrator</text>
<polyline fill="none" stroke="black" points="1280,-1181 1524,-1181 "/>
<text text-anchor="start" x="1288" y="-1165.8" font-family="Times,serif" font-size="14.00">id :integer</text>
<text text-anchor="start" x="1288" y="-1150.8" font-family="Times,serif" font-size="14.00">created_at :timestamp without time zone</text>
<text text-anchor="start" x="1288" y="-1135.8" font-family="Times,serif" font-size="14.00">updated_at :timestamp without time zone</text>
</g>
<!-- User -->
<g id="node14" class="node"><title>User</title>
<path fill="none" stroke="black" d="M965.5,-676.5C965.5,-676.5 1254.5,-676.5 1254.5,-676.5 1260.5,-676.5 1266.5,-682.5 1266.5,-688.5 1266.5,-688.5 1266.5,-1025.5 1266.5,-1025.5 1266.5,-1031.5 1260.5,-1037.5 1254.5,-1037.5 1254.5,-1037.5 965.5,-1037.5 965.5,-1037.5 959.5,-1037.5 953.5,-1031.5 953.5,-1025.5 953.5,-1025.5 953.5,-688.5 953.5,-688.5 953.5,-682.5 959.5,-676.5 965.5,-676.5"/>
<text text-anchor="middle" x="1110" y="-1022.3" font-family="Times,serif" font-size="14.00">User</text>
<polyline fill="none" stroke="black" points="953.5,-1014.5 1266.5,-1014.5 "/>
<text text-anchor="start" x="961.5" y="-999.3" font-family="Times,serif" font-size="14.00">id :integer</text>
<text text-anchor="start" x="961.5" y="-984.3" font-family="Times,serif" font-size="14.00">email :character varying</text>
<text text-anchor="start" x="961.5" y="-969.3" font-family="Times,serif" font-size="14.00">encrypted_password :character varying</text>
<text text-anchor="start" x="961.5" y="-954.3" font-family="Times,serif" font-size="14.00">reset_password_token :character varying</text>
<text text-anchor="start" x="961.5" y="-939.3" font-family="Times,serif" font-size="14.00">reset_password_sent_at :timestamp without time zone</text>
<text text-anchor="start" x="961.5" y="-924.3" font-family="Times,serif" font-size="14.00">remember_created_at :timestamp without time zone</text>
<text text-anchor="start" x="961.5" y="-909.3" font-family="Times,serif" font-size="14.00">sign_in_count :integer</text>
<text text-anchor="start" x="961.5" y="-894.3" font-family="Times,serif" font-size="14.00">current_sign_in_at :timestamp without time zone</text>
<text text-anchor="start" x="961.5" y="-879.3" font-family="Times,serif" font-size="14.00">last_sign_in_at :timestamp without time zone</text>
<text text-anchor="start" x="961.5" y="-864.3" font-family="Times,serif" font-size="14.00">current_sign_in_ip :inet</text>
<text text-anchor="start" x="961.5" y="-849.3" font-family="Times,serif" font-size="14.00">last_sign_in_ip :inet</text>
<text text-anchor="start" x="961.5" y="-834.3" font-family="Times,serif" font-size="14.00">created_at :timestamp without time zone</text>
<text text-anchor="start" x="961.5" y="-819.3" font-family="Times,serif" font-size="14.00">updated_at :timestamp without time zone</text>
<text text-anchor="start" x="961.5" y="-804.3" font-family="Times,serif" font-size="14.00">username :character varying</text>
<text text-anchor="start" x="961.5" y="-789.3" font-family="Times,serif" font-size="14.00">name :character varying</text>
<text text-anchor="start" x="961.5" y="-774.3" font-family="Times,serif" font-size="14.00">surname1 :character varying</text>
<text text-anchor="start" x="961.5" y="-759.3" font-family="Times,serif" font-size="14.00">surname2 :character varying</text>
<text text-anchor="start" x="961.5" y="-744.3" font-family="Times,serif" font-size="14.00">phone :character varying</text>
<text text-anchor="start" x="961.5" y="-729.3" font-family="Times,serif" font-size="14.00">birthday :date</text>
<text text-anchor="start" x="961.5" y="-714.3" font-family="Times,serif" font-size="14.00">sku :character varying</text>
<text text-anchor="start" x="961.5" y="-699.3" font-family="Times,serif" font-size="14.00">role_id :integer</text>
<text text-anchor="start" x="961.5" y="-684.3" font-family="Times,serif" font-size="14.00">role_type :character varying</text>
</g>
<!-- Administrator&#45;&gt;User -->
<g id="edge4" class="edge"><title>Administrator&#45;&gt;User</title>
<path fill="none" stroke="#e1cc68" d="M1361.21,-1122.11C1337.65,-1097.35 1306.31,-1064.39 1273.76,-1030.18"/>
<ellipse fill="none" stroke="#e1cc68" cx="1364.02" cy="-1125.07" rx="4.00002" ry="4.00002"/>
<polygon fill="#e1cc68" stroke="#e1cc68" points="1273.7,-1030.1 1270.06,-1019.76 1270.25,-1026.48 1266.8,-1022.86 1266.8,-1022.86 1266.8,-1022.86 1270.25,-1026.48 1263.54,-1025.96 1273.7,-1030.1 1273.7,-1030.1"/>
</g>
<!-- Addition -->
<g id="node9" class="node"><title>Addition</title>
<path fill="none" stroke="black" d="M1554,-1090.5C1554,-1090.5 1792,-1090.5 1792,-1090.5 1798,-1090.5 1804,-1096.5 1804,-1102.5 1804,-1102.5 1804,-1229.5 1804,-1229.5 1804,-1235.5 1798,-1241.5 1792,-1241.5 1792,-1241.5 1554,-1241.5 1554,-1241.5 1548,-1241.5 1542,-1235.5 1542,-1229.5 1542,-1229.5 1542,-1102.5 1542,-1102.5 1542,-1096.5 1548,-1090.5 1554,-1090.5"/>
<text text-anchor="middle" x="1673" y="-1226.3" font-family="Times,serif" font-size="14.00">Addition</text>
<polyline fill="none" stroke="black" points="1542,-1218.5 1804,-1218.5 "/>
<text text-anchor="start" x="1550" y="-1203.3" font-family="Times,serif" font-size="14.00">id :integer</text>
<text text-anchor="start" x="1550" y="-1188.3" font-family="Times,serif" font-size="14.00">purchase_date :timestamp without time zone</text>
<text text-anchor="start" x="1550" y="-1173.3" font-family="Times,serif" font-size="14.00">base_price :double precision</text>
<text text-anchor="start" x="1550" y="-1158.3" font-family="Times,serif" font-size="14.00">discount_id :integer</text>
<text text-anchor="start" x="1550" y="-1143.3" font-family="Times,serif" font-size="14.00">profile_id :integer</text>
<text text-anchor="start" x="1550" y="-1128.3" font-family="Times,serif" font-size="14.00">story_id :integer</text>
<text text-anchor="start" x="1550" y="-1113.3" font-family="Times,serif" font-size="14.00">created_at :timestamp without time zone</text>
<text text-anchor="start" x="1550" y="-1098.3" font-family="Times,serif" font-size="14.00">updated_at :timestamp without time zone</text>
</g>
<!-- Report -->
<g id="node10" class="node"><title>Report</title>
<path fill="none" stroke="black" d="M738,-464.5C738,-464.5 958,-464.5 958,-464.5 964,-464.5 970,-470.5 970,-476.5 970,-476.5 970,-603.5 970,-603.5 970,-609.5 964,-615.5 958,-615.5 958,-615.5 738,-615.5 738,-615.5 732,-615.5 726,-609.5 726,-603.5 726,-603.5 726,-476.5 726,-476.5 726,-470.5 732,-464.5 738,-464.5"/>
<text text-anchor="middle" x="848" y="-600.3" font-family="Times,serif" font-size="14.00">Report</text>
<polyline fill="none" stroke="black" points="726,-592.5 970,-592.5 "/>
<text text-anchor="start" x="734" y="-577.3" font-family="Times,serif" font-size="14.00">id :integer</text>
<text text-anchor="start" x="734" y="-562.3" font-family="Times,serif" font-size="14.00">user_id :integer</text>
<text text-anchor="start" x="734" y="-547.3" font-family="Times,serif" font-size="14.00">title :character varying</text>
<text text-anchor="start" x="734" y="-532.3" font-family="Times,serif" font-size="14.00">body :character varying</text>
<text text-anchor="start" x="734" y="-517.3" font-family="Times,serif" font-size="14.00">status :character varying</text>
<text text-anchor="start" x="734" y="-502.3" font-family="Times,serif" font-size="14.00">type :character varying</text>
<text text-anchor="start" x="734" y="-487.3" font-family="Times,serif" font-size="14.00">created_at :timestamp without time zone</text>
<text text-anchor="start" x="734" y="-472.3" font-family="Times,serif" font-size="14.00">updated_at :timestamp without time zone</text>
</g>
<!-- Chapter -->
<g id="node11" class="node"><title>Chapter</title>
<path fill="none" stroke="black" d="M461,-0.5C461,-0.5 681,-0.5 681,-0.5 687,-0.5 693,-6.5 693,-12.5 693,-12.5 693,-109.5 693,-109.5 693,-115.5 687,-121.5 681,-121.5 681,-121.5 461,-121.5 461,-121.5 455,-121.5 449,-115.5 449,-109.5 449,-109.5 449,-12.5 449,-12.5 449,-6.5 455,-0.5 461,-0.5"/>
<text text-anchor="middle" x="571" y="-106.3" font-family="Times,serif" font-size="14.00">Chapter</text>
<polyline fill="none" stroke="black" points="449,-98.5 693,-98.5 "/>
<text text-anchor="start" x="457" y="-83.3" font-family="Times,serif" font-size="14.00">id :integer</text>
<text text-anchor="start" x="457" y="-68.3" font-family="Times,serif" font-size="14.00">title :character varying</text>
<text text-anchor="start" x="457" y="-53.3" font-family="Times,serif" font-size="14.00">body :text</text>
<text text-anchor="start" x="457" y="-38.3" font-family="Times,serif" font-size="14.00">created_at :timestamp without time zone</text>
<text text-anchor="start" x="457" y="-23.3" font-family="Times,serif" font-size="14.00">updated_at :timestamp without time zone</text>
<text text-anchor="start" x="457" y="-8.3" font-family="Times,serif" font-size="14.00">story_id :integer</text>
</g>
<!-- UserGroup -->
<g id="node12" class="node"><title>UserGroup</title>
<path fill="none" stroke="black" d="M1262,-472C1262,-472 1482,-472 1482,-472 1488,-472 1494,-478 1494,-484 1494,-484 1494,-596 1494,-596 1494,-602 1488,-608 1482,-608 1482,-608 1262,-608 1262,-608 1256,-608 1250,-602 1250,-596 1250,-596 1250,-484 1250,-484 1250,-478 1256,-472 1262,-472"/>
<text text-anchor="middle" x="1372" y="-592.8" font-family="Times,serif" font-size="14.00">UserGroup</text>
<polyline fill="none" stroke="black" points="1250,-585 1494,-585 "/>
<text text-anchor="start" x="1258" y="-569.8" font-family="Times,serif" font-size="14.00">id :integer</text>
<text text-anchor="start" x="1258" y="-554.8" font-family="Times,serif" font-size="14.00">name :character varying</text>
<text text-anchor="start" x="1258" y="-539.8" font-family="Times,serif" font-size="14.00">code :character varying</text>
<text text-anchor="start" x="1258" y="-524.8" font-family="Times,serif" font-size="14.00">discount_user_group_id :integer</text>
<text text-anchor="start" x="1258" y="-509.8" font-family="Times,serif" font-size="14.00">actor_user_group_id :integer</text>
<text text-anchor="start" x="1258" y="-494.8" font-family="Times,serif" font-size="14.00">created_at :timestamp without time zone</text>
<text text-anchor="start" x="1258" y="-479.8" font-family="Times,serif" font-size="14.00">updated_at :timestamp without time zone</text>
</g>
<!-- UserGroup&#45;&gt;DiscountUserGroup -->
<g id="edge5" class="edge"><title>UserGroup&#45;&gt;DiscountUserGroup</title>
<path fill="none" stroke="#7c7d12" d="M1470.61,-465.932C1483.77,-451.587 1495.34,-435.496 1503,-418 1544.95,-322.147 1523.21,-197.65 1503.61,-124.136"/>
<ellipse fill="none" stroke="#7c7d12" cx="1467.64" cy="-469.07" rx="4.00002" ry="4.00002"/>
<polygon fill="#7c7d12" stroke="#7c7d12" points="1503.5,-123.755 1505.2,-112.921 1502.18,-118.932 1500.86,-114.11 1500.86,-114.11 1500.86,-114.11 1502.18,-118.932 1496.52,-115.298 1503.5,-123.755 1503.5,-123.755"/>
</g>
<!-- Discount -->
<g id="node18" class="node"><title>Discount</title>
<path fill="none" stroke="black" d="M1262,-213.5C1262,-213.5 1482,-213.5 1482,-213.5 1488,-213.5 1494,-219.5 1494,-225.5 1494,-225.5 1494,-352.5 1494,-352.5 1494,-358.5 1488,-364.5 1482,-364.5 1482,-364.5 1262,-364.5 1262,-364.5 1256,-364.5 1250,-358.5 1250,-352.5 1250,-352.5 1250,-225.5 1250,-225.5 1250,-219.5 1256,-213.5 1262,-213.5"/>
<text text-anchor="middle" x="1372" y="-349.3" font-family="Times,serif" font-size="14.00">Discount</text>
<polyline fill="none" stroke="black" points="1250,-341.5 1494,-341.5 "/>
<text text-anchor="start" x="1258" y="-326.3" font-family="Times,serif" font-size="14.00">id :integer</text>
<text text-anchor="start" x="1258" y="-311.3" font-family="Times,serif" font-size="14.00">code :character varying</text>
<text text-anchor="start" x="1258" y="-296.3" font-family="Times,serif" font-size="14.00">title :character varying</text>
<text text-anchor="start" x="1258" y="-281.3" font-family="Times,serif" font-size="14.00">description :character varying</text>
<text text-anchor="start" x="1258" y="-266.3" font-family="Times,serif" font-size="14.00">amount :double precision</text>
<text text-anchor="start" x="1258" y="-251.3" font-family="Times,serif" font-size="14.00">created_at :timestamp without time zone</text>
<text text-anchor="start" x="1258" y="-236.3" font-family="Times,serif" font-size="14.00">updated_at :timestamp without time zone</text>
<text text-anchor="start" x="1258" y="-221.3" font-family="Times,serif" font-size="14.00">used :boolean</text>
</g>
<!-- UserGroup&#45;&gt;Discount -->
<g id="edge6" class="edge"><title>UserGroup&#45;&gt;Discount</title>
<path fill="none" stroke="#f4214b" d="M1372,-461.649C1372,-434.117 1372,-402.974 1372,-374.847"/>
<polygon fill="#f4214b" stroke="#f4214b" points="1372,-461.945 1367.5,-471.945 1372,-466.945 1372,-471.945 1372,-471.945 1372,-471.945 1372,-466.945 1376.5,-471.945 1372,-461.945 1372,-461.945"/>
<polygon fill="#f4214b" stroke="#f4214b" points="1372,-374.633 1376.5,-364.633 1372,-369.633 1372,-364.633 1372,-364.633 1372,-364.633 1372,-369.633 1367.5,-364.633 1372,-374.633 1372,-374.633"/>
</g>
<!-- ActorUserGroup -->
<g id="node19" class="node"><title>ActorUserGroup</title>
<path fill="none" stroke="black" d="M1668,-236C1668,-236 1888,-236 1888,-236 1894,-236 1900,-242 1900,-248 1900,-248 1900,-330 1900,-330 1900,-336 1894,-342 1888,-342 1888,-342 1668,-342 1668,-342 1662,-342 1656,-336 1656,-330 1656,-330 1656,-248 1656,-248 1656,-242 1662,-236 1668,-236"/>
<text text-anchor="middle" x="1778" y="-326.8" font-family="Times,serif" font-size="14.00">ActorUserGroup</text>
<polyline fill="none" stroke="black" points="1656,-319 1900,-319 "/>
<text text-anchor="start" x="1664" y="-303.8" font-family="Times,serif" font-size="14.00">id :integer</text>
<text text-anchor="start" x="1664" y="-288.8" font-family="Times,serif" font-size="14.00">user_id :integer</text>
<text text-anchor="start" x="1664" y="-273.8" font-family="Times,serif" font-size="14.00">usergroup_id :integer</text>
<text text-anchor="start" x="1664" y="-258.8" font-family="Times,serif" font-size="14.00">created_at :timestamp without time zone</text>
<text text-anchor="start" x="1664" y="-243.8" font-family="Times,serif" font-size="14.00">updated_at :timestamp without time zone</text>
</g>
<!-- UserGroup&#45;&gt;ActorUserGroup -->
<g id="edge7" class="edge"><title>UserGroup&#45;&gt;ActorUserGroup</title>
<path fill="none" stroke="#031d05" d="M1483.77,-467.502C1490.25,-463.57 1496.7,-459.711 1503,-456 1517.4,-447.525 1521.54,-446.361 1536,-438 1586.27,-408.942 1641.57,-375.257 1686.6,-347.371"/>
<ellipse fill="none" stroke="#031d05" cx="1480.15" cy="-469.713" rx="4.00002" ry="4.00002"/>
<polygon fill="#031d05" stroke="#031d05" points="1686.67,-347.324 1697.54,-345.879 1690.92,-344.689 1695.17,-342.055 1695.17,-342.055 1695.17,-342.055 1690.92,-344.689 1692.8,-338.23 1686.67,-347.324 1686.67,-347.324"/>
</g>
<!-- Actor -->
<g id="node20" class="node"><title>Actor</title>
<ellipse fill="none" stroke="black" cx="1201" cy="-289" rx="30.3206" ry="18"/>
<text text-anchor="middle" x="1201" y="-285.3" font-family="Times,serif" font-size="14.00">Actor</text>
</g>
<!-- UserGroup&#45;&gt;Actor -->
<g id="edge8" class="edge"><title>UserGroup&#45;&gt;Actor</title>
<path fill="none" stroke="#2853e1" d="M1278.68,-464.496C1264.66,-450.191 1251.43,-434.488 1241,-418 1221.11,-386.559 1210.47,-344.499 1205.28,-317.326"/>
<polygon fill="#2853e1" stroke="#2853e1" points="1278.99,-464.796 1282.91,-475.037 1282.53,-468.321 1286.08,-471.846 1286.08,-471.846 1286.08,-471.846 1282.53,-468.321 1289.25,-468.654 1278.99,-464.796 1278.99,-464.796"/>
<polygon fill="#2853e1" stroke="#2853e1" points="1205.25,-317.194 1207.92,-306.557 1204.37,-312.273 1203.49,-307.351 1203.49,-307.351 1203.49,-307.351 1204.37,-312.273 1199.06,-308.145 1205.25,-317.194 1205.25,-317.194"/>
</g>
<!-- Story&#45;&gt;StoryCategory -->
<g id="edge10" class="edge"><title>Story&#45;&gt;StoryCategory</title>
<path fill="none" stroke="#4ed094" d="M397.548,-154.647C386.554,-143.145 375.839,-131.933 365.878,-121.511"/>
<ellipse fill="none" stroke="#4ed094" cx="400.663" cy="-157.906" rx="4.00002" ry="4.00002"/>
<polygon fill="#4ed094" stroke="#4ed094" points="365.674,-121.298 362.018,-110.959 362.219,-117.683 358.764,-114.068 358.764,-114.068 358.764,-114.068 362.219,-117.683 355.511,-117.178 365.674,-121.298 365.674,-121.298"/>
</g>
<!-- Story&#45;&gt;Chapter -->
<g id="edge9" class="edge"><title>Story&#45;&gt;Chapter</title>
<path fill="none" stroke="#6ba75f" d="M552.511,-152.838C553.997,-145.534 555.458,-138.359 556.866,-131.44"/>
<ellipse fill="none" stroke="#6ba75f" cx="551.688" cy="-156.878" rx="4.00001" ry="4.00001"/>
<polygon fill="#6ba75f" stroke="#6ba75f" points="556.894,-131.303 563.298,-122.401 557.891,-126.403 558.889,-121.504 558.889,-121.504 558.889,-121.504 557.891,-126.403 554.479,-120.606 556.894,-131.303 556.894,-131.303"/>
</g>
<!-- User&#45;&gt;Profile -->
<g id="edge14" class="edge"><title>User&#45;&gt;Profile</title>
<path fill="none" stroke="#4d3fa5" d="M1110,-668.203C1110,-655.494 1110,-643.06 1110,-631.246"/>
<ellipse fill="none" stroke="#4d3fa5" cx="1110" cy="-672.416" rx="4" ry="4"/>
<ellipse fill="#4d3fa5" stroke="#4d3fa5" cx="1110" cy="-627.171" rx="4" ry="4"/>
</g>
<!-- User&#45;&gt;Friendship -->
<g id="edge15" class="edge"><title>User&#45;&gt;Friendship</title>
<path fill="none" stroke="#75661d" d="M945.816,-799.373C862.509,-765.939 762.599,-718.288 684,-658 665.859,-644.085 648.814,-626.259 634.187,-608.739"/>
<ellipse fill="none" stroke="#75661d" cx="949.597" cy="-800.881" rx="4.00001" ry="4.00001"/>
<polygon fill="#75661d" stroke="#75661d" points="633.967,-608.47 631.126,-597.879 630.804,-604.598 627.641,-600.725 627.641,-600.725 627.641,-600.725 630.804,-604.598 624.156,-603.572 633.967,-608.47 633.967,-608.47"/>
</g>
<!-- User&#45;&gt;Friendship -->
<g id="edge17" class="edge"><title>User&#45;&gt;Friendship</title>
<path fill="none" stroke="#b0e135" d="M946.209,-760.858C875.415,-719.336 791.818,-669.77 717,-624 707.497,-618.186 697.643,-612.083 687.8,-605.937"/>
<ellipse fill="none" stroke="#b0e135" cx="950.006" cy="-763.084" rx="4.00002" ry="4.00002"/>
<polygon fill="#b0e135" stroke="#b0e135" points="687.639,-605.836 681.55,-596.716 683.401,-603.183 679.163,-600.53 679.163,-600.53 679.163,-600.53 683.401,-603.183 676.775,-604.345 687.639,-605.836 687.639,-605.836"/>
<text text-anchor="middle" x="823" y="-646.3" font-family="Times,serif" font-size="14.00">inverse_friendships</text>
</g>
<!-- User&#45;&gt;Report -->
<g id="edge13" class="edge"><title>User&#45;&gt;Report</title>
<path fill="none" stroke="#d78e61" d="M955.255,-669.952C941.921,-653.92 928.925,-638.296 916.847,-623.775"/>
<ellipse fill="none" stroke="#d78e61" cx="958.074" cy="-673.341" rx="4.00002" ry="4.00002"/>
<polygon fill="#d78e61" stroke="#d78e61" points="916.63,-623.514 913.695,-612.948 913.433,-619.669 910.236,-615.825 910.236,-615.825 910.236,-615.825 913.433,-619.669 906.776,-618.703 916.63,-623.514 916.63,-623.514"/>
</g>
<!-- User&#45;&gt;UserGroup -->
<g id="edge20" class="edge"><title>User&#45;&gt;UserGroup</title>
<path fill="none" stroke="#8e0e23" d="M1265.94,-668.511C1281.22,-650.145 1296.02,-632.344 1309.49,-616.158"/>
<polygon fill="#8e0e23" stroke="#8e0e23" points="1265.76,-668.728 1255.91,-673.539 1262.57,-672.572 1259.37,-676.416 1259.37,-676.416 1259.37,-676.416 1262.57,-672.572 1262.83,-679.294 1265.76,-668.728 1265.76,-668.728"/>
<polygon fill="#8e0e23" stroke="#8e0e23" points="1309.59,-616.034 1319.45,-611.224 1312.79,-612.19 1315.99,-608.346 1315.99,-608.346 1315.99,-608.346 1312.79,-612.19 1312.53,-605.468 1309.59,-616.034 1309.59,-616.034"/>
</g>
<!-- User&#45;&gt;User -->
<g id="edge16" class="edge"><title>User&#45;&gt;User</title>
<path fill="none" stroke="#afd897" d="M1276.16,-867.191C1281.16,-864.424 1284,-861.027 1284,-857 1284,-852.973 1281.16,-849.576 1276.16,-846.809"/>
<polygon fill="#afd897" stroke="#afd897" points="1275.88,-867.302 1264.92,-866.844 1271.24,-869.162 1266.6,-871.021 1266.6,-871.021 1266.6,-871.021 1271.24,-869.162 1268.27,-875.198 1275.88,-867.302 1275.88,-867.302"/>
<polygon fill="#afd897" stroke="#afd897" points="1275.88,-846.698 1268.27,-838.802 1271.24,-844.838 1266.6,-842.979 1266.6,-842.979 1266.6,-842.979 1271.24,-844.838 1264.92,-847.156 1275.88,-846.698 1275.88,-846.698"/>
<text text-anchor="middle" x="1303" y="-853.3" font-family="Times,serif" font-size="14.00">friends</text>
</g>
<!-- User&#45;&gt;User -->
<g id="edge18" class="edge"><title>User&#45;&gt;User</title>
<path fill="none" stroke="#2345b7" d="M1276.85,-892.292C1303.55,-886.95 1322,-875.186 1322,-857 1322,-838.814 1303.55,-827.05 1276.85,-821.708"/>
<polygon fill="#2345b7" stroke="#2345b7" points="1276.53,-892.345 1265.93,-889.529 1271.6,-893.157 1266.66,-893.969 1266.66,-893.969 1266.66,-893.969 1271.6,-893.157 1267.39,-898.41 1276.53,-892.345 1276.53,-892.345"/>
<polygon fill="#2345b7" stroke="#2345b7" points="1276.53,-821.655 1267.39,-815.59 1271.6,-820.843 1266.66,-820.031 1266.66,-820.031 1266.66,-820.031 1271.6,-820.843 1265.93,-824.471 1276.53,-821.655 1276.53,-821.655"/>
<text text-anchor="middle" x="1364" y="-853.3" font-family="Times,serif" font-size="14.00">inverse_friends</text>
</g>
<!-- User&#45;&gt;ActorUserGroup -->
<g id="edge19" class="edge"><title>User&#45;&gt;ActorUserGroup</title>
<path fill="none" stroke="#ae5fc0" d="M1274.61,-828.697C1474.72,-791.759 1794.54,-719.365 1865,-624 1925.39,-542.262 1867.58,-422.226 1821.67,-350.516"/>
<ellipse fill="none" stroke="#ae5fc0" cx="1270.59" cy="-829.436" rx="4.00001" ry="4.00001"/>
<polygon fill="#ae5fc0" stroke="#ae5fc0" points="1821.6,-350.399 1819.91,-339.563 1818.87,-346.208 1816.14,-342.017 1816.14,-342.017 1816.14,-342.017 1818.87,-346.208 1812.37,-344.471 1821.6,-350.399 1821.6,-350.399"/>
</g>
<!-- Mailboxer::Message -->
<g id="node21" class="node"><title>Mailboxer::Message</title>
<ellipse fill="none" stroke="black" cx="1596" cy="-540" rx="83.2649" ry="18"/>
<text text-anchor="middle" x="1596" y="-536.3" font-family="Times,serif" font-size="14.00">Mailboxer::Message</text>
</g>
<!-- User&#45;&gt;Mailboxer::Message -->
<g id="edge11" class="edge"><title>User&#45;&gt;Mailboxer::Message</title>
<path fill="none" stroke="#c8a830" d="M1273.92,-768.742C1346.22,-727.873 1430.94,-676.644 1503,-624 1527.92,-605.792 1553.94,-582.11 1572.1,-564.705"/>
<ellipse fill="none" stroke="#c8a830" cx="1270" cy="-770.952" rx="4.00002" ry="4.00002"/>
<polygon fill="#c8a830" stroke="#c8a830" points="1572.19,-564.619 1582.5,-560.897 1575.78,-561.141 1579.37,-557.664 1579.37,-557.664 1579.37,-557.664 1575.78,-561.141 1576.24,-554.43 1572.19,-564.619 1572.19,-564.619"/>
<text text-anchor="middle" x="1498" y="-646.3" font-family="Times,serif" font-size="14.00">messages</text>
</g>
<!-- Mailboxer::Receipt -->
<g id="node22" class="node"><title>Mailboxer::Receipt</title>
<ellipse fill="none" stroke="black" cx="1777" cy="-540" rx="78.9404" ry="18"/>
<text text-anchor="middle" x="1777" y="-536.3" font-family="Times,serif" font-size="14.00">Mailboxer::Receipt</text>
</g>
<!-- User&#45;&gt;Mailboxer::Receipt -->
<g id="edge12" class="edge"><title>User&#45;&gt;Mailboxer::Receipt</title>
<path fill="none" stroke="#7d9508" d="M1274.35,-808.056C1394.45,-768.841 1558.29,-706.429 1688,-624 1713.51,-607.785 1738.31,-583.767 1755.22,-565.734"/>
<ellipse fill="none" stroke="#7d9508" cx="1270.31" cy="-809.369" rx="4.00001" ry="4.00001"/>
<polygon fill="#7d9508" stroke="#7d9508" points="1755.64,-565.279 1765.72,-560.966 1759.03,-561.599 1762.41,-557.919 1762.41,-557.919 1762.41,-557.919 1759.03,-561.599 1759.1,-554.873 1755.64,-565.279 1755.64,-565.279"/>
<text text-anchor="middle" x="1665.5" y="-646.3" font-family="Times,serif" font-size="14.00">receipts</text>
</g>
<!-- RequestFriendship -->
<g id="node15" class="node"><title>RequestFriendship</title>
<path fill="none" stroke="black" d="M506,-1098C506,-1098 726,-1098 726,-1098 732,-1098 738,-1104 738,-1110 738,-1110 738,-1222 738,-1222 738,-1228 732,-1234 726,-1234 726,-1234 506,-1234 506,-1234 500,-1234 494,-1228 494,-1222 494,-1222 494,-1110 494,-1110 494,-1104 500,-1098 506,-1098"/>
<text text-anchor="middle" x="616" y="-1218.8" font-family="Times,serif" font-size="14.00">RequestFriendship</text>
<polyline fill="none" stroke="black" points="494,-1211 738,-1211 "/>
<text text-anchor="start" x="502" y="-1195.8" font-family="Times,serif" font-size="14.00">id :integer</text>
<text text-anchor="start" x="502" y="-1180.8" font-family="Times,serif" font-size="14.00">sender_id :integer</text>
<text text-anchor="start" x="502" y="-1165.8" font-family="Times,serif" font-size="14.00">recipient_id :integer</text>
<text text-anchor="start" x="502" y="-1150.8" font-family="Times,serif" font-size="14.00">message :text</text>
<text text-anchor="start" x="502" y="-1135.8" font-family="Times,serif" font-size="14.00">status :character varying</text>
<text text-anchor="start" x="502" y="-1120.8" font-family="Times,serif" font-size="14.00">created_at :timestamp without time zone</text>
<text text-anchor="start" x="502" y="-1105.8" font-family="Times,serif" font-size="14.00">updated_at :timestamp without time zone</text>
</g>
<!-- RequestFriendship&#45;&gt;Friendship -->
<g id="edge23" class="edge"><title>RequestFriendship&#45;&gt;Friendship</title>
<path fill="none" stroke="#c6a2fd" d="M612.387,-1089.85C606.5,-967.401 594.929,-726.722 589.271,-609.039"/>
<ellipse fill="none" stroke="#c6a2fd" cx="612.583" cy="-1093.93" rx="4" ry="4"/>
<ellipse fill="#c6a2fd" stroke="#c6a2fd" cx="589.066" cy="-604.777" rx="4" ry="4"/>
</g>
<!-- RequestFriendship&#45;&gt;User -->
<g id="edge21" class="edge"><title>RequestFriendship&#45;&gt;User</title>
<path fill="none" stroke="#8346a0" d="M731.262,-1093.37C795.198,-1053.64 875.783,-1003.56 946.167,-959.815"/>
<ellipse fill="none" stroke="#8346a0" cx="727.502" cy="-1095.71" rx="4.00002" ry="4.00002"/>
<ellipse fill="#8346a0" stroke="#8346a0" cx="949.984" cy="-957.443" rx="4.00002" ry="4.00002"/>
<text text-anchor="middle" x="807" y="-1060.3" font-family="Times,serif" font-size="14.00">sender</text>
</g>
<!-- RequestFriendship&#45;&gt;User -->
<g id="edge22" class="edge"><title>RequestFriendship&#45;&gt;User</title>
<path fill="none" stroke="#f8621e" d="M681.064,-1092.06C694.261,-1079.24 708.547,-1066.62 723,-1056 791.349,-1005.77 874.275,-961.48 945.806,-927.598"/>
<ellipse fill="none" stroke="#f8621e" cx="677.929" cy="-1095.15" rx="4.00002" ry="4.00002"/>
<ellipse fill="#f8621e" stroke="#f8621e" cx="949.516" cy="-925.849" rx="4.00002" ry="4.00002"/>
<text text-anchor="middle" x="747" y="-1060.3" font-family="Times,serif" font-size="14.00">recipient</text>
</g>
<!-- PremiumUser -->
<g id="node16" class="node"><title>PremiumUser</title>
<path fill="none" stroke="black" d="M768,-1128C768,-1128 988,-1128 988,-1128 994,-1128 1000,-1134 1000,-1140 1000,-1140 1000,-1192 1000,-1192 1000,-1198 994,-1204 988,-1204 988,-1204 768,-1204 768,-1204 762,-1204 756,-1198 756,-1192 756,-1192 756,-1140 756,-1140 756,-1134 762,-1128 768,-1128"/>
<text text-anchor="middle" x="878" y="-1188.8" font-family="Times,serif" font-size="14.00">PremiumUser</text>
<polyline fill="none" stroke="black" points="756,-1181 1000,-1181 "/>
<text text-anchor="start" x="764" y="-1165.8" font-family="Times,serif" font-size="14.00">id :integer</text>
<text text-anchor="start" x="764" y="-1150.8" font-family="Times,serif" font-size="14.00">created_at :timestamp without time zone</text>
<text text-anchor="start" x="764" y="-1135.8" font-family="Times,serif" font-size="14.00">updated_at :timestamp without time zone</text>
</g>
<!-- PremiumUser&#45;&gt;User -->
<g id="edge24" class="edge"><title>PremiumUser&#45;&gt;User</title>
<path fill="none" stroke="#3b2aec" d="M910.951,-1121.4C926.761,-1100.48 946.897,-1073.83 968.26,-1045.56"/>
<ellipse fill="none" stroke="#3b2aec" cx="908.396" cy="-1124.78" rx="4.00002" ry="4.00002"/>
<polygon fill="#3b2aec" stroke="#3b2aec" points="968.287,-1045.53 977.906,-1040.26 971.301,-1041.54 974.316,-1037.55 974.316,-1037.55 974.316,-1037.55 971.301,-1041.54 970.726,-1034.83 968.287,-1045.53 968.287,-1045.53"/>
</g>
<!-- FreeUser -->
<g id="node17" class="node"><title>FreeUser</title>
<path fill="none" stroke="black" d="M1030,-1128C1030,-1128 1250,-1128 1250,-1128 1256,-1128 1262,-1134 1262,-1140 1262,-1140 1262,-1192 1262,-1192 1262,-1198 1256,-1204 1250,-1204 1250,-1204 1030,-1204 1030,-1204 1024,-1204 1018,-1198 1018,-1192 1018,-1192 1018,-1140 1018,-1140 1018,-1134 1024,-1128 1030,-1128"/>
<text text-anchor="middle" x="1140" y="-1188.8" font-family="Times,serif" font-size="14.00">FreeUser</text>
<polyline fill="none" stroke="black" points="1018,-1181 1262,-1181 "/>
<text text-anchor="start" x="1026" y="-1165.8" font-family="Times,serif" font-size="14.00">id :integer</text>
<text text-anchor="start" x="1026" y="-1150.8" font-family="Times,serif" font-size="14.00">created_at :timestamp without time zone</text>
<text text-anchor="start" x="1026" y="-1135.8" font-family="Times,serif" font-size="14.00">updated_at :timestamp without time zone</text>
</g>
<!-- FreeUser&#45;&gt;User -->
<g id="edge25" class="edge"><title>FreeUser&#45;&gt;User</title>
<path fill="none" stroke="#1f4b23" d="M1135.59,-1119.91C1133.62,-1099.71 1131.15,-1074.39 1128.52,-1047.51"/>
<ellipse fill="none" stroke="#1f4b23" cx="1135.99" cy="-1123.99" rx="4" ry="4"/>
<polygon fill="#1f4b23" stroke="#1f4b23" points="1128.52,-1047.5 1132.02,-1037.11 1128.03,-1042.52 1127.55,-1037.55 1127.55,-1037.55 1127.55,-1037.55 1128.03,-1042.52 1123.07,-1037.99 1128.52,-1047.5 1128.52,-1047.5"/>
</g>
<!-- Discount&#45;&gt;DiscountUserGroup -->
<g id="edge26" class="edge"><title>Discount&#45;&gt;DiscountUserGroup</title>
<path fill="none" stroke="#b33e71" d="M1412.61,-206.056C1426.16,-178.704 1441.02,-148.719 1453.66,-123.223"/>
<ellipse fill="none" stroke="#b33e71" cx="1410.76" cy="-209.789" rx="4.00002" ry="4.00002"/>
<polygon fill="#b33e71" stroke="#b33e71" points="1453.77,-123.005 1462.24,-116.043 1455.99,-118.525 1458.21,-114.045 1458.21,-114.045 1458.21,-114.045 1455.99,-118.525 1454.18,-112.047 1453.77,-123.005 1453.77,-123.005"/>
</g>
</g>
</svg>
