<?xml version="1.0" encoding="UTF-8" standalone="no"?>
<!DOCTYPE svg PUBLIC "-//W3C//DTD SVG 1.1//EN"
 "http://www.w3.org/Graphics/SVG/1.1/DTD/svg11.dtd">
<!-- Generated by graphviz version 2.36.0 (20140111.2315)
 -->
<!-- Title: models_diagram Pages: 1 -->
<svg width="2802pt" height="1146pt"
 viewBox="0.00 0.00 2802.00 1146.00" xmlns="http://www.w3.org/2000/svg" xmlns:xlink="http://www.w3.org/1999/xlink">
<g id="graph0" class="graph" transform="scale(1 1) rotate(0) translate(4 1142)">
<title>models_diagram</title>
<polygon fill="none" stroke="none" points="-4,4 -4,-1142 2798,-1142 2798,4 -4,4"/>
<!-- _diagram_info -->
<g id="node1" class="node"><title>_diagram_info</title>
<text text-anchor="start" x="8" y="-1078.6" font-family="Times,serif" font-size="13.00">Models diagram</text>
<text text-anchor="start" x="8" y="-1064.6" font-family="Times,serif" font-size="13.00">Date: Feb 24 2016 &#45; 21:31</text>
<text text-anchor="start" x="8" y="-1050.6" font-family="Times,serif" font-size="13.00">Migration version: 20160223191838</text>
<text text-anchor="start" x="8" y="-1036.6" font-family="Times,serif" font-size="13.00">Generated by RailRoady 1.4.2</text>
<text text-anchor="start" x="8" y="-1022.6" font-family="Times,serif" font-size="13.00">http://railroady.prestonlee.com</text>
</g>
<!-- Option -->
<g id="node2" class="node"><title>Option</title>
<path fill="none" stroke="black" d="M244,-1008.5C244,-1008.5 464,-1008.5 464,-1008.5 470,-1008.5 476,-1014.5 476,-1020.5 476,-1020.5 476,-1087.5 476,-1087.5 476,-1093.5 470,-1099.5 464,-1099.5 464,-1099.5 244,-1099.5 244,-1099.5 238,-1099.5 232,-1093.5 232,-1087.5 232,-1087.5 232,-1020.5 232,-1020.5 232,-1014.5 238,-1008.5 244,-1008.5"/>
<text text-anchor="middle" x="354" y="-1084.3" font-family="Times,serif" font-size="14.00">Option</text>
<polyline fill="none" stroke="black" points="232,-1076.5 476,-1076.5 "/>
<text text-anchor="start" x="240" y="-1061.3" font-family="Times,serif" font-size="14.00">id :integer</text>
<text text-anchor="start" x="240" y="-1046.3" font-family="Times,serif" font-size="14.00">option :character varying</text>
<text text-anchor="start" x="240" y="-1031.3" font-family="Times,serif" font-size="14.00">created_at :timestamp without time zone</text>
<text text-anchor="start" x="240" y="-1016.3" font-family="Times,serif" font-size="14.00">updated_at :timestamp without time zone</text>
</g>
<!-- Category -->
<g id="node3" class="node"><title>Category</title>
<path fill="none" stroke="black" d="M506,-971C506,-971 756,-971 756,-971 762,-971 768,-977 768,-983 768,-983 768,-1125 768,-1125 768,-1131 762,-1137 756,-1137 756,-1137 506,-1137 506,-1137 500,-1137 494,-1131 494,-1125 494,-1125 494,-983 494,-983 494,-977 500,-971 506,-971"/>
<text text-anchor="middle" x="631" y="-1121.8" font-family="Times,serif" font-size="14.00">Category</text>
<polyline fill="none" stroke="black" points="494,-1114 768,-1114 "/>
<text text-anchor="start" x="502" y="-1098.8" font-family="Times,serif" font-size="14.00">id :integer</text>
<text text-anchor="start" x="502" y="-1083.8" font-family="Times,serif" font-size="14.00">name :character varying</text>
<text text-anchor="start" x="502" y="-1068.8" font-family="Times,serif" font-size="14.00">description :character varying</text>
<text text-anchor="start" x="502" y="-1053.8" font-family="Times,serif" font-size="14.00">created_at :timestamp without time zone</text>
<text text-anchor="start" x="502" y="-1038.8" font-family="Times,serif" font-size="14.00">updated_at :timestamp without time zone</text>
<text text-anchor="start" x="502" y="-1023.8" font-family="Times,serif" font-size="14.00">icon_file_name :character varying</text>
<text text-anchor="start" x="502" y="-1008.8" font-family="Times,serif" font-size="14.00">icon_content_type :character varying</text>
<text text-anchor="start" x="502" y="-993.8" font-family="Times,serif" font-size="14.00">icon_file_size :integer</text>
<text text-anchor="start" x="502" y="-978.8" font-family="Times,serif" font-size="14.00">icon_updated_at :timestamp without time zone</text>
</g>
<!-- StoryCategory -->
<g id="node7" class="node"><title>StoryCategory</title>
<path fill="none" stroke="black" d="M448,-367C448,-367 668,-367 668,-367 674,-367 680,-373 680,-379 680,-379 680,-461 680,-461 680,-467 674,-473 668,-473 668,-473 448,-473 448,-473 442,-473 436,-467 436,-461 436,-461 436,-379 436,-379 436,-373 442,-367 448,-367"/>
<text text-anchor="middle" x="558" y="-457.8" font-family="Times,serif" font-size="14.00">StoryCategory</text>
<polyline fill="none" stroke="black" points="436,-450 680,-450 "/>
<text text-anchor="start" x="444" y="-434.8" font-family="Times,serif" font-size="14.00">id :integer</text>
<text text-anchor="start" x="444" y="-419.8" font-family="Times,serif" font-size="14.00">story_id :integer</text>
<text text-anchor="start" x="444" y="-404.8" font-family="Times,serif" font-size="14.00">category_id :integer</text>
<text text-anchor="start" x="444" y="-389.8" font-family="Times,serif" font-size="14.00">created_at :timestamp without time zone</text>
<text text-anchor="start" x="444" y="-374.8" font-family="Times,serif" font-size="14.00">updated_at :timestamp without time zone</text>
</g>
<!-- Category&#45;&gt;StoryCategory -->
<g id="edge1" class="edge"><title>Category&#45;&gt;StoryCategory</title>
<path fill="none" stroke="#61c4a4" d="M620.538,-962.424C605.508,-832.301 578.19,-595.794 565.215,-483.461"/>
<ellipse fill="none" stroke="#61c4a4" cx="621.035" cy="-966.728" rx="4.00001" ry="4.00001"/>
<polygon fill="#61c4a4" stroke="#61c4a4" points="565.19,-483.244 568.512,-472.794 564.616,-478.277 564.042,-473.31 564.042,-473.31 564.042,-473.31 564.616,-478.277 559.572,-473.826 565.19,-483.244 565.19,-483.244"/>
</g>
<!-- Story -->
<g id="node13" class="node"><title>Story</title>
<path fill="none" stroke="black" d="M714.5,-609C714.5,-609 971.5,-609 971.5,-609 977.5,-609 983.5,-615 983.5,-621 983.5,-621 983.5,-853 983.5,-853 983.5,-859 977.5,-865 971.5,-865 971.5,-865 714.5,-865 714.5,-865 708.5,-865 702.5,-859 702.5,-853 702.5,-853 702.5,-621 702.5,-621 702.5,-615 708.5,-609 714.5,-609"/>
<text text-anchor="middle" x="843" y="-849.8" font-family="Times,serif" font-size="14.00">Story</text>
<polyline fill="none" stroke="black" points="702.5,-842 983.5,-842 "/>
<text text-anchor="start" x="710.5" y="-826.8" font-family="Times,serif" font-size="14.00">id :integer</text>
<text text-anchor="start" x="710.5" y="-811.8" font-family="Times,serif" font-size="14.00">title :character varying</text>
<text text-anchor="start" x="710.5" y="-796.8" font-family="Times,serif" font-size="14.00">description :character varying</text>
<text text-anchor="start" x="710.5" y="-781.8" font-family="Times,serif" font-size="14.00">language :character varying</text>
<text text-anchor="start" x="710.5" y="-766.8" font-family="Times,serif" font-size="14.00">price :double precision</text>
<text text-anchor="start" x="710.5" y="-751.8" font-family="Times,serif" font-size="14.00">release_date :date</text>
<text text-anchor="start" x="710.5" y="-736.8" font-family="Times,serif" font-size="14.00">published :boolean</text>
<text text-anchor="start" x="710.5" y="-721.8" font-family="Times,serif" font-size="14.00">num_purchased :integer</text>
<text text-anchor="start" x="710.5" y="-706.8" font-family="Times,serif" font-size="14.00">profile_id :integer</text>
<text text-anchor="start" x="710.5" y="-691.8" font-family="Times,serif" font-size="14.00">created_at :timestamp without time zone</text>
<text text-anchor="start" x="710.5" y="-676.8" font-family="Times,serif" font-size="14.00">updated_at :timestamp without time zone</text>
<text text-anchor="start" x="710.5" y="-661.8" font-family="Times,serif" font-size="14.00">cover_file_name :character varying</text>
<text text-anchor="start" x="710.5" y="-646.8" font-family="Times,serif" font-size="14.00">cover_content_type :character varying</text>
<text text-anchor="start" x="710.5" y="-631.8" font-family="Times,serif" font-size="14.00">cover_file_size :integer</text>
<text text-anchor="start" x="710.5" y="-616.8" font-family="Times,serif" font-size="14.00">cover_updated_at :timestamp without time zone</text>
</g>
<!-- Category&#45;&gt;Story -->
<g id="edge2" class="edge"><title>Category&#45;&gt;Story</title>
<path fill="none" stroke="#a0ac3d" d="M692.101,-962.214C710.743,-934.514 731.658,-903.437 751.841,-873.448"/>
<polygon fill="#a0ac3d" stroke="#a0ac3d" points="692.007,-962.353 682.69,-968.136 689.215,-966.501 686.424,-970.649 686.424,-970.649 686.424,-970.649 689.215,-966.501 690.157,-973.161 692.007,-962.353 692.007,-962.353"/>
<polygon fill="#a0ac3d" stroke="#a0ac3d" points="751.929,-873.318 761.245,-867.535 754.72,-869.17 757.512,-865.022 757.512,-865.022 757.512,-865.022 754.72,-869.17 753.779,-862.51 751.929,-873.318 751.929,-873.318"/>
</g>
<!-- DiscountUserGroup -->
<g id="node4" class="node"><title>DiscountUserGroup</title>
<path fill="none" stroke="black" d="M1726,-1C1726,-1 1946,-1 1946,-1 1952,-1 1958,-7 1958,-13 1958,-13 1958,-95 1958,-95 1958,-101 1952,-107 1946,-107 1946,-107 1726,-107 1726,-107 1720,-107 1714,-101 1714,-95 1714,-95 1714,-13 1714,-13 1714,-7 1720,-1 1726,-1"/>
<text text-anchor="middle" x="1836" y="-91.8" font-family="Times,serif" font-size="14.00">DiscountUserGroup</text>
<polyline fill="none" stroke="black" points="1714,-84 1958,-84 "/>
<text text-anchor="start" x="1722" y="-68.8" font-family="Times,serif" font-size="14.00">id :integer</text>
<text text-anchor="start" x="1722" y="-53.8" font-family="Times,serif" font-size="14.00">user_group_id :integer</text>
<text text-anchor="start" x="1722" y="-38.8" font-family="Times,serif" font-size="14.00">discount_id :integer</text>
<text text-anchor="start" x="1722" y="-23.8" font-family="Times,serif" font-size="14.00">created_at :timestamp without time zone</text>
<text text-anchor="start" x="1722" y="-8.8" font-family="Times,serif" font-size="14.00">updated_at :timestamp without time zone</text>
</g>
<!-- Profile -->
<g id="node5" class="node"><title>Profile</title>
<path fill="none" stroke="black" d="M710,-337C710,-337 930,-337 930,-337 936,-337 942,-343 942,-349 942,-349 942,-491 942,-491 942,-497 936,-503 930,-503 930,-503 710,-503 710,-503 704,-503 698,-497 698,-491 698,-491 698,-349 698,-349 698,-343 704,-337 710,-337"/>
<text text-anchor="middle" x="820" y="-487.8" font-family="Times,serif" font-size="14.00">Profile</text>
<polyline fill="none" stroke="black" points="698,-480 942,-480 "/>
<text text-anchor="start" x="706" y="-464.8" font-family="Times,serif" font-size="14.00">id :integer</text>
<text text-anchor="start" x="706" y="-449.8" font-family="Times,serif" font-size="14.00">name :character varying</text>
<text text-anchor="start" x="706" y="-434.8" font-family="Times,serif" font-size="14.00">avatar :character varying</text>
<text text-anchor="start" x="706" y="-419.8" font-family="Times,serif" font-size="14.00">description :character varying</text>
<text text-anchor="start" x="706" y="-404.8" font-family="Times,serif" font-size="14.00">signature :character varying</text>
<text text-anchor="start" x="706" y="-389.8" font-family="Times,serif" font-size="14.00">user_id :integer</text>
<text text-anchor="start" x="706" y="-374.8" font-family="Times,serif" font-size="14.00">created_at :timestamp without time zone</text>
<text text-anchor="start" x="706" y="-359.8" font-family="Times,serif" font-size="14.00">updated_at :timestamp without time zone</text>
<text text-anchor="start" x="706" y="-344.8" font-family="Times,serif" font-size="14.00">profile_status :boolean</text>
</g>
<!-- Profile&#45;&gt;Story -->
<g id="edge3" class="edge"><title>Profile&#45;&gt;Story</title>
<path fill="none" stroke="#4c2801" d="M870.734,-510.819C871.969,-514.543 873.068,-518.278 874,-522 880.162,-546.593 880.915,-573.104 878.684,-598.809"/>
<ellipse fill="none" stroke="#4c2801" cx="869.361" cy="-506.964" rx="4.00001" ry="4.00001"/>
<polygon fill="#4c2801" stroke="#4c2801" points="878.66,-599.048 873.167,-608.539 878.152,-604.022 877.644,-608.996 877.644,-608.996 877.644,-608.996 878.152,-604.022 882.121,-609.453 878.66,-599.048 878.66,-599.048"/>
</g>
<!-- Friendship -->
<g id="node6" class="node"><title>Friendship</title>
<path fill="none" stroke="black" d="M1496,-359.5C1496,-359.5 1716,-359.5 1716,-359.5 1722,-359.5 1728,-365.5 1728,-371.5 1728,-371.5 1728,-468.5 1728,-468.5 1728,-474.5 1722,-480.5 1716,-480.5 1716,-480.5 1496,-480.5 1496,-480.5 1490,-480.5 1484,-474.5 1484,-468.5 1484,-468.5 1484,-371.5 1484,-371.5 1484,-365.5 1490,-359.5 1496,-359.5"/>
<text text-anchor="middle" x="1606" y="-465.3" font-family="Times,serif" font-size="14.00">Friendship</text>
<polyline fill="none" stroke="black" points="1484,-457.5 1728,-457.5 "/>
<text text-anchor="start" x="1492" y="-442.3" font-family="Times,serif" font-size="14.00">id :integer</text>
<text text-anchor="start" x="1492" y="-427.3" font-family="Times,serif" font-size="14.00">user_id :integer</text>
<text text-anchor="start" x="1492" y="-412.3" font-family="Times,serif" font-size="14.00">friend_id :integer</text>
<text text-anchor="start" x="1492" y="-397.3" font-family="Times,serif" font-size="14.00">request_friendship_id :integer</text>
<text text-anchor="start" x="1492" y="-382.3" font-family="Times,serif" font-size="14.00">created_at :timestamp without time zone</text>
<text text-anchor="start" x="1492" y="-367.3" font-family="Times,serif" font-size="14.00">updated_at :timestamp without time zone</text>
</g>
<!-- Administrator -->
<g id="node8" class="node"><title>Administrator</title>
<path fill="none" stroke="black" d="M1758,-1016C1758,-1016 1978,-1016 1978,-1016 1984,-1016 1990,-1022 1990,-1028 1990,-1028 1990,-1080 1990,-1080 1990,-1086 1984,-1092 1978,-1092 1978,-1092 1758,-1092 1758,-1092 1752,-1092 1746,-1086 1746,-1080 1746,-1080 1746,-1028 1746,-1028 1746,-1022 1752,-1016 1758,-1016"/>
<text text-anchor="middle" x="1868" y="-1076.8" font-family="Times,serif" font-size="14.00">Administrator</text>
<polyline fill="none" stroke="black" points="1746,-1069 1990,-1069 "/>
<text text-anchor="start" x="1754" y="-1053.8" font-family="Times,serif" font-size="14.00">id :integer</text>
<text text-anchor="start" x="1754" y="-1038.8" font-family="Times,serif" font-size="14.00">created_at :timestamp without time zone</text>
<text text-anchor="start" x="1754" y="-1023.8" font-family="Times,serif" font-size="14.00">updated_at :timestamp without time zone</text>
</g>
<!-- User -->
<g id="node15" class="node"><title>User</title>
<path fill="none" stroke="black" d="M1723.5,-556.5C1723.5,-556.5 2012.5,-556.5 2012.5,-556.5 2018.5,-556.5 2024.5,-562.5 2024.5,-568.5 2024.5,-568.5 2024.5,-905.5 2024.5,-905.5 2024.5,-911.5 2018.5,-917.5 2012.5,-917.5 2012.5,-917.5 1723.5,-917.5 1723.5,-917.5 1717.5,-917.5 1711.5,-911.5 1711.5,-905.5 1711.5,-905.5 1711.5,-568.5 1711.5,-568.5 1711.5,-562.5 1717.5,-556.5 1723.5,-556.5"/>
<text text-anchor="middle" x="1868" y="-902.3" font-family="Times,serif" font-size="14.00">User</text>
<polyline fill="none" stroke="black" points="1711.5,-894.5 2024.5,-894.5 "/>
<text text-anchor="start" x="1719.5" y="-879.3" font-family="Times,serif" font-size="14.00">id :integer</text>
<text text-anchor="start" x="1719.5" y="-864.3" font-family="Times,serif" font-size="14.00">email :character varying</text>
<text text-anchor="start" x="1719.5" y="-849.3" font-family="Times,serif" font-size="14.00">encrypted_password :character varying</text>
<text text-anchor="start" x="1719.5" y="-834.3" font-family="Times,serif" font-size="14.00">reset_password_token :character varying</text>
<text text-anchor="start" x="1719.5" y="-819.3" font-family="Times,serif" font-size="14.00">reset_password_sent_at :timestamp without time zone</text>
<text text-anchor="start" x="1719.5" y="-804.3" font-family="Times,serif" font-size="14.00">remember_created_at :timestamp without time zone</text>
<text text-anchor="start" x="1719.5" y="-789.3" font-family="Times,serif" font-size="14.00">sign_in_count :integer</text>
<text text-anchor="start" x="1719.5" y="-774.3" font-family="Times,serif" font-size="14.00">current_sign_in_at :timestamp without time zone</text>
<text text-anchor="start" x="1719.5" y="-759.3" font-family="Times,serif" font-size="14.00">last_sign_in_at :timestamp without time zone</text>
<text text-anchor="start" x="1719.5" y="-744.3" font-family="Times,serif" font-size="14.00">current_sign_in_ip :inet</text>
<text text-anchor="start" x="1719.5" y="-729.3" font-family="Times,serif" font-size="14.00">last_sign_in_ip :inet</text>
<text text-anchor="start" x="1719.5" y="-714.3" font-family="Times,serif" font-size="14.00">created_at :timestamp without time zone</text>
<text text-anchor="start" x="1719.5" y="-699.3" font-family="Times,serif" font-size="14.00">updated_at :timestamp without time zone</text>
<text text-anchor="start" x="1719.5" y="-684.3" font-family="Times,serif" font-size="14.00">username :character varying</text>
<text text-anchor="start" x="1719.5" y="-669.3" font-family="Times,serif" font-size="14.00">name :character varying</text>
<text text-anchor="start" x="1719.5" y="-654.3" font-family="Times,serif" font-size="14.00">surname1 :character varying</text>
<text text-anchor="start" x="1719.5" y="-639.3" font-family="Times,serif" font-size="14.00">surname2 :character varying</text>
<text text-anchor="start" x="1719.5" y="-624.3" font-family="Times,serif" font-size="14.00">phone :character varying</text>
<text text-anchor="start" x="1719.5" y="-609.3" font-family="Times,serif" font-size="14.00">birthday :date</text>
<text text-anchor="start" x="1719.5" y="-594.3" font-family="Times,serif" font-size="14.00">sku :character varying</text>
<text text-anchor="start" x="1719.5" y="-579.3" font-family="Times,serif" font-size="14.00">role_id :integer</text>
<text text-anchor="start" x="1719.5" y="-564.3" font-family="Times,serif" font-size="14.00">role_type :character varying</text>
</g>
<!-- Administrator&#45;&gt;User -->
<g id="edge4" class="edge"><title>Administrator&#45;&gt;User</title>
<path fill="none" stroke="#61b5f5" d="M1868,-1007.92C1868,-985.898 1868,-957.743 1868,-927.97"/>
<ellipse fill="none" stroke="#61b5f5" cx="1868" cy="-1011.94" rx="4" ry="4"/>
<polygon fill="#61b5f5" stroke="#61b5f5" points="1868,-927.818 1872.5,-917.818 1868,-922.818 1868,-917.818 1868,-917.818 1868,-917.818 1868,-922.818 1863.5,-917.818 1868,-927.818 1868,-927.818"/>
</g>
<!-- Addition -->
<g id="node9" class="node"><title>Addition</title>
<path fill="none" stroke="black" d="M2544,-978.5C2544,-978.5 2782,-978.5 2782,-978.5 2788,-978.5 2794,-984.5 2794,-990.5 2794,-990.5 2794,-1117.5 2794,-1117.5 2794,-1123.5 2788,-1129.5 2782,-1129.5 2782,-1129.5 2544,-1129.5 2544,-1129.5 2538,-1129.5 2532,-1123.5 2532,-1117.5 2532,-1117.5 2532,-990.5 2532,-990.5 2532,-984.5 2538,-978.5 2544,-978.5"/>
<text text-anchor="middle" x="2663" y="-1114.3" font-family="Times,serif" font-size="14.00">Addition</text>
<polyline fill="none" stroke="black" points="2532,-1106.5 2794,-1106.5 "/>
<text text-anchor="start" x="2540" y="-1091.3" font-family="Times,serif" font-size="14.00">id :integer</text>
<text text-anchor="start" x="2540" y="-1076.3" font-family="Times,serif" font-size="14.00">purchase_date :timestamp without time zone</text>
<text text-anchor="start" x="2540" y="-1061.3" font-family="Times,serif" font-size="14.00">base_price :double precision</text>
<text text-anchor="start" x="2540" y="-1046.3" font-family="Times,serif" font-size="14.00">discount_id :integer</text>
<text text-anchor="start" x="2540" y="-1031.3" font-family="Times,serif" font-size="14.00">profile_id :integer</text>
<text text-anchor="start" x="2540" y="-1016.3" font-family="Times,serif" font-size="14.00">story_id :integer</text>
<text text-anchor="start" x="2540" y="-1001.3" font-family="Times,serif" font-size="14.00">created_at :timestamp without time zone</text>
<text text-anchor="start" x="2540" y="-986.3" font-family="Times,serif" font-size="14.00">updated_at :timestamp without time zone</text>
</g>
<!-- Report -->
<g id="node10" class="node"><title>Report</title>
<path fill="none" stroke="black" d="M1758,-344.5C1758,-344.5 1978,-344.5 1978,-344.5 1984,-344.5 1990,-350.5 1990,-356.5 1990,-356.5 1990,-483.5 1990,-483.5 1990,-489.5 1984,-495.5 1978,-495.5 1978,-495.5 1758,-495.5 1758,-495.5 1752,-495.5 1746,-489.5 1746,-483.5 1746,-483.5 1746,-356.5 1746,-356.5 1746,-350.5 1752,-344.5 1758,-344.5"/>
<text text-anchor="middle" x="1868" y="-480.3" font-family="Times,serif" font-size="14.00">Report</text>
<polyline fill="none" stroke="black" points="1746,-472.5 1990,-472.5 "/>
<text text-anchor="start" x="1754" y="-457.3" font-family="Times,serif" font-size="14.00">id :integer</text>
<text text-anchor="start" x="1754" y="-442.3" font-family="Times,serif" font-size="14.00">user_id :integer</text>
<text text-anchor="start" x="1754" y="-427.3" font-family="Times,serif" font-size="14.00">title :character varying</text>
<text text-anchor="start" x="1754" y="-412.3" font-family="Times,serif" font-size="14.00">body :character varying</text>
<text text-anchor="start" x="1754" y="-397.3" font-family="Times,serif" font-size="14.00">status :character varying</text>
<text text-anchor="start" x="1754" y="-382.3" font-family="Times,serif" font-size="14.00">type :character varying</text>
<text text-anchor="start" x="1754" y="-367.3" font-family="Times,serif" font-size="14.00">created_at :timestamp without time zone</text>
<text text-anchor="start" x="1754" y="-352.3" font-family="Times,serif" font-size="14.00">updated_at :timestamp without time zone</text>
</g>
<!-- Chapter -->
<g id="node11" class="node"><title>Chapter</title>
<path fill="none" stroke="black" d="M972,-359.5C972,-359.5 1192,-359.5 1192,-359.5 1198,-359.5 1204,-365.5 1204,-371.5 1204,-371.5 1204,-468.5 1204,-468.5 1204,-474.5 1198,-480.5 1192,-480.5 1192,-480.5 972,-480.5 972,-480.5 966,-480.5 960,-474.5 960,-468.5 960,-468.5 960,-371.5 960,-371.5 960,-365.5 966,-359.5 972,-359.5"/>
<text text-anchor="middle" x="1082" y="-465.3" font-family="Times,serif" font-size="14.00">Chapter</text>
<polyline fill="none" stroke="black" points="960,-457.5 1204,-457.5 "/>
<text text-anchor="start" x="968" y="-442.3" font-family="Times,serif" font-size="14.00">id :integer</text>
<text text-anchor="start" x="968" y="-427.3" font-family="Times,serif" font-size="14.00">title :character varying</text>
<text text-anchor="start" x="968" y="-412.3" font-family="Times,serif" font-size="14.00">body :text</text>
<text text-anchor="start" x="968" y="-397.3" font-family="Times,serif" font-size="14.00">created_at :timestamp without time zone</text>
<text text-anchor="start" x="968" y="-382.3" font-family="Times,serif" font-size="14.00">updated_at :timestamp without time zone</text>
<text text-anchor="start" x="968" y="-367.3" font-family="Times,serif" font-size="14.00">story_id :integer</text>
</g>
<!-- UserGroup -->
<g id="node12" class="node"><title>UserGroup</title>
<path fill="none" stroke="black" d="M2020,-352C2020,-352 2240,-352 2240,-352 2246,-352 2252,-358 2252,-364 2252,-364 2252,-476 2252,-476 2252,-482 2246,-488 2240,-488 2240,-488 2020,-488 2020,-488 2014,-488 2008,-482 2008,-476 2008,-476 2008,-364 2008,-364 2008,-358 2014,-352 2020,-352"/>
<text text-anchor="middle" x="2130" y="-472.8" font-family="Times,serif" font-size="14.00">UserGroup</text>
<polyline fill="none" stroke="black" points="2008,-465 2252,-465 "/>
<text text-anchor="start" x="2016" y="-449.8" font-family="Times,serif" font-size="14.00">id :integer</text>
<text text-anchor="start" x="2016" y="-434.8" font-family="Times,serif" font-size="14.00">name :character varying</text>
<text text-anchor="start" x="2016" y="-419.8" font-family="Times,serif" font-size="14.00">code :character varying</text>
<text text-anchor="start" x="2016" y="-404.8" font-family="Times,serif" font-size="14.00">discount_user_group_id :integer</text>
<text text-anchor="start" x="2016" y="-389.8" font-family="Times,serif" font-size="14.00">actor_user_group_id :integer</text>
<text text-anchor="start" x="2016" y="-374.8" font-family="Times,serif" font-size="14.00">created_at :timestamp without time zone</text>
<text text-anchor="start" x="2016" y="-359.8" font-family="Times,serif" font-size="14.00">updated_at :timestamp without time zone</text>
</g>
<!-- UserGroup&#45;&gt;DiscountUserGroup -->
<g id="edge5" class="edge"><title>UserGroup&#45;&gt;DiscountUserGroup</title>
<path fill="none" stroke="#a716b6" d="M2025.05,-348.006C2016.42,-343.571 2007.68,-339.495 1999,-336 1920.32,-304.336 1865.67,-363.67 1812,-298 1770.88,-247.68 1787.61,-170.49 1807.65,-116.655"/>
<ellipse fill="none" stroke="#a716b6" cx="2028.72" cy="-349.945" rx="4.00002" ry="4.00002"/>
<polygon fill="#a716b6" stroke="#a716b6" points="1807.69,-116.552 1815.49,-108.839 1809.49,-111.887 1811.29,-107.221 1811.29,-107.221 1811.29,-107.221 1809.49,-111.887 1807.09,-105.603 1807.69,-116.552 1807.69,-116.552"/>
</g>
<!-- Discount -->
<g id="node19" class="node"><title>Discount</title>
<path fill="none" stroke="black" d="M1833,-146.5C1833,-146.5 2053,-146.5 2053,-146.5 2059,-146.5 2065,-152.5 2065,-158.5 2065,-158.5 2065,-285.5 2065,-285.5 2065,-291.5 2059,-297.5 2053,-297.5 2053,-297.5 1833,-297.5 1833,-297.5 1827,-297.5 1821,-291.5 1821,-285.5 1821,-285.5 1821,-158.5 1821,-158.5 1821,-152.5 1827,-146.5 1833,-146.5"/>
<text text-anchor="middle" x="1943" y="-282.3" font-family="Times,serif" font-size="14.00">Discount</text>
<polyline fill="none" stroke="black" points="1821,-274.5 2065,-274.5 "/>
<text text-anchor="start" x="1829" y="-259.3" font-family="Times,serif" font-size="14.00">id :integer</text>
<text text-anchor="start" x="1829" y="-244.3" font-family="Times,serif" font-size="14.00">code :character varying</text>
<text text-anchor="start" x="1829" y="-229.3" font-family="Times,serif" font-size="14.00">title :character varying</text>
<text text-anchor="start" x="1829" y="-214.3" font-family="Times,serif" font-size="14.00">description :character varying</text>
<text text-anchor="start" x="1829" y="-199.3" font-family="Times,serif" font-size="14.00">amount :double precision</text>
<text text-anchor="start" x="1829" y="-184.3" font-family="Times,serif" font-size="14.00">created_at :timestamp without time zone</text>
<text text-anchor="start" x="1829" y="-169.3" font-family="Times,serif" font-size="14.00">updated_at :timestamp without time zone</text>
<text text-anchor="start" x="1829" y="-154.3" font-family="Times,serif" font-size="14.00">used :boolean</text>
</g>
<!-- UserGroup&#45;&gt;Discount -->
<g id="edge6" class="edge"><title>UserGroup&#45;&gt;Discount</title>
<path fill="none" stroke="#e7dd1f" d="M2058.83,-344.404C2046.66,-331.649 2033.96,-318.333 2021.61,-305.39"/>
<polygon fill="#e7dd1f" stroke="#e7dd1f" points="2059,-344.587 2062.65,-354.928 2062.46,-348.205 2065.91,-351.822 2065.91,-351.822 2065.91,-351.822 2062.46,-348.205 2069.16,-348.716 2059,-344.587 2059,-344.587"/>
<polygon fill="#e7dd1f" stroke="#e7dd1f" points="2021.29,-305.055 2017.64,-294.713 2017.84,-301.437 2014.38,-297.82 2014.38,-297.82 2014.38,-297.82 2017.84,-301.437 2011.13,-300.926 2021.29,-305.055 2021.29,-305.055"/>
</g>
<!-- ActorUserGroup -->
<g id="node20" class="node"><title>ActorUserGroup</title>
<path fill="none" stroke="black" d="M2095,-169C2095,-169 2315,-169 2315,-169 2321,-169 2327,-175 2327,-181 2327,-181 2327,-263 2327,-263 2327,-269 2321,-275 2315,-275 2315,-275 2095,-275 2095,-275 2089,-275 2083,-269 2083,-263 2083,-263 2083,-181 2083,-181 2083,-175 2089,-169 2095,-169"/>
<text text-anchor="middle" x="2205" y="-259.8" font-family="Times,serif" font-size="14.00">ActorUserGroup</text>
<polyline fill="none" stroke="black" points="2083,-252 2327,-252 "/>
<text text-anchor="start" x="2091" y="-236.8" font-family="Times,serif" font-size="14.00">id :integer</text>
<text text-anchor="start" x="2091" y="-221.8" font-family="Times,serif" font-size="14.00">user_id :integer</text>
<text text-anchor="start" x="2091" y="-206.8" font-family="Times,serif" font-size="14.00">usergroup_id :integer</text>
<text text-anchor="start" x="2091" y="-191.8" font-family="Times,serif" font-size="14.00">created_at :timestamp without time zone</text>
<text text-anchor="start" x="2091" y="-176.8" font-family="Times,serif" font-size="14.00">updated_at :timestamp without time zone</text>
</g>
<!-- UserGroup&#45;&gt;ActorUserGroup -->
<g id="edge7" class="edge"><title>UserGroup&#45;&gt;ActorUserGroup</title>
<path fill="none" stroke="#b0c251" d="M2158.66,-344.107C2166.18,-324.451 2174.2,-303.479 2181.43,-284.607"/>
<ellipse fill="none" stroke="#b0c251" cx="2157.14" cy="-348.086" rx="4.00001" ry="4.00001"/>
<polygon fill="#b0c251" stroke="#b0c251" points="2181.44,-284.577 2189.21,-276.846 2183.22,-279.908 2185.01,-275.238 2185.01,-275.238 2185.01,-275.238 2183.22,-279.908 2180.81,-273.63 2181.44,-284.577 2181.44,-284.577"/>
</g>
<!-- Actor -->
<g id="node21" class="node"><title>Actor</title>
<ellipse fill="none" stroke="black" cx="2376" cy="-222" rx="30.3206" ry="18"/>
<text text-anchor="middle" x="2376" y="-218.3" font-family="Times,serif" font-size="14.00">Actor</text>
</g>
<!-- UserGroup&#45;&gt;Actor -->
<g id="edge8" class="edge"><title>UserGroup&#45;&gt;Actor</title>
<path fill="none" stroke="#f743d0" d="M2260.89,-356.81C2287.78,-340.186 2314.43,-320.48 2336,-298 2349.33,-284.113 2359.46,-264.908 2366.19,-249.409"/>
<polygon fill="#f743d0" stroke="#f743d0" points="2260.71,-356.919 2249.82,-358.25 2256.43,-359.509 2252.15,-362.099 2252.15,-362.099 2252.15,-362.099 2256.43,-359.509 2254.48,-365.948 2260.71,-356.919 2260.71,-356.919"/>
<polygon fill="#f743d0" stroke="#f743d0" points="2366.32,-249.1 2374.28,-241.564 2368.22,-244.476 2370.12,-239.852 2370.12,-239.852 2370.12,-239.852 2368.22,-244.476 2365.96,-238.14 2366.32,-249.1 2366.32,-249.1"/>
</g>
<!-- Story&#45;&gt;Profile -->
<g id="edge12" class="edge"><title>Story&#45;&gt;Profile</title>
<path fill="none" stroke="#03a7ce" d="M796.91,-598.821C792.576,-573.436 790.829,-547.036 794,-522 794.368,-519.095 794.793,-516.154 795.267,-513.193"/>
<polygon fill="#03a7ce" stroke="#03a7ce" points="796.949,-599.037 794.341,-609.688 797.858,-603.954 798.767,-608.871 798.767,-608.871 798.767,-608.871 797.858,-603.954 803.192,-608.053 796.949,-599.037 796.949,-599.037"/>
<polygon fill="#03a7ce" stroke="#03a7ce" points="795.315,-512.921 801.484,-503.855 796.183,-507.997 797.052,-503.073 797.052,-503.073 797.052,-503.073 796.183,-507.997 792.62,-502.291 795.315,-512.921 795.315,-512.921"/>
<text text-anchor="middle" x="832" y="-526.3" font-family="Times,serif" font-size="14.00">readerProfiles</text>
</g>
<!-- Story&#45;&gt;StoryCategory -->
<g id="edge10" class="edge"><title>Story&#45;&gt;StoryCategory</title>
<path fill="none" stroke="#0a2962" d="M722.347,-602.647C683.898,-560.15 643.275,-515.251 612.036,-480.724"/>
<ellipse fill="none" stroke="#0a2962" cx="725.217" cy="-605.819" rx="4.00002" ry="4.00002"/>
<polygon fill="#0a2962" stroke="#0a2962" points="611.824,-480.489 608.451,-470.055 608.469,-476.781 605.114,-473.074 605.114,-473.074 605.114,-473.074 608.469,-476.781 601.777,-476.093 611.824,-480.489 611.824,-480.489"/>
</g>
<!-- Story&#45;&gt;Chapter -->
<g id="edge9" class="edge"><title>Story&#45;&gt;Chapter</title>
<path fill="none" stroke="#73da09" d="M944.453,-602.285C974.068,-563.254 1005.2,-522.228 1030.33,-489.095"/>
<ellipse fill="none" stroke="#73da09" cx="941.939" cy="-605.599" rx="4.00002" ry="4.00002"/>
<polygon fill="#73da09" stroke="#73da09" points="1030.55,-488.813 1040.18,-483.567 1033.57,-484.83 1036.59,-480.847 1036.59,-480.847 1036.59,-480.847 1033.57,-484.83 1033.01,-478.127 1030.55,-488.813 1030.55,-488.813"/>
</g>
<!-- Reading -->
<g id="node14" class="node"><title>Reading</title>
<path fill="none" stroke="black" d="M1234,-367C1234,-367 1454,-367 1454,-367 1460,-367 1466,-373 1466,-379 1466,-379 1466,-461 1466,-461 1466,-467 1460,-473 1454,-473 1454,-473 1234,-473 1234,-473 1228,-473 1222,-467 1222,-461 1222,-461 1222,-379 1222,-379 1222,-373 1228,-367 1234,-367"/>
<text text-anchor="middle" x="1344" y="-457.8" font-family="Times,serif" font-size="14.00">Reading</text>
<polyline fill="none" stroke="black" points="1222,-450 1466,-450 "/>
<text text-anchor="start" x="1230" y="-434.8" font-family="Times,serif" font-size="14.00">id :integer</text>
<text text-anchor="start" x="1230" y="-419.8" font-family="Times,serif" font-size="14.00">story_id :integer</text>
<text text-anchor="start" x="1230" y="-404.8" font-family="Times,serif" font-size="14.00">profile_id :integer</text>
<text text-anchor="start" x="1230" y="-389.8" font-family="Times,serif" font-size="14.00">created_at :timestamp without time zone</text>
<text text-anchor="start" x="1230" y="-374.8" font-family="Times,serif" font-size="14.00">updated_at :timestamp without time zone</text>
</g>
<!-- Story&#45;&gt;Reading -->
<g id="edge11" class="edge"><title>Story&#45;&gt;Reading</title>
<path fill="none" stroke="#a65273" d="M990.591,-643.678C1058.39,-601.209 1139.83,-550.122 1213,-504 1225.99,-495.815 1239.68,-487.16 1253.13,-478.649"/>
<ellipse fill="none" stroke="#a65273" cx="987.044" cy="-645.899" rx="4.00002" ry="4.00002"/>
<polygon fill="#a65273" stroke="#a65273" points="1253.48,-478.431 1264.33,-476.885 1257.7,-475.757 1261.93,-473.083 1261.93,-473.083 1261.93,-473.083 1257.7,-475.757 1259.52,-469.281 1253.48,-478.431 1253.48,-478.431"/>
</g>
<!-- User&#45;&gt;Profile -->
<g id="edge16" class="edge"><title>User&#45;&gt;Profile</title>
<path fill="none" stroke="#db5ec1" d="M1703.41,-710.587C1515.84,-677.97 1202.7,-612.283 951,-504 950.536,-503.801 950.072,-503.599 949.608,-503.397"/>
<ellipse fill="none" stroke="#db5ec1" cx="1707.48" cy="-711.29" rx="4.00001" ry="4.00001"/>
<ellipse fill="#db5ec1" stroke="#db5ec1" cx="945.72" cy="-501.639" rx="4.00002" ry="4.00002"/>
</g>
<!-- User&#45;&gt;Friendship -->
<g id="edge17" class="edge"><title>User&#45;&gt;Friendship</title>
<path fill="none" stroke="#da40b7" d="M1713.34,-550.055C1695.19,-528.229 1677.66,-507.157 1662.22,-488.592"/>
<ellipse fill="none" stroke="#da40b7" cx="1716.07" cy="-553.341" rx="4.00002" ry="4.00002"/>
<polygon fill="#da40b7" stroke="#da40b7" points="1662.13,-488.482 1659.19,-477.916 1658.93,-484.637 1655.73,-480.793 1655.73,-480.793 1655.73,-480.793 1658.93,-484.637 1652.27,-483.671 1662.13,-488.482 1662.13,-488.482"/>
</g>
<!-- User&#45;&gt;Friendship -->
<g id="edge19" class="edge"><title>User&#45;&gt;Friendship</title>
<path fill="none" stroke="#6447c8" d="M1731.64,-550.027C1723.78,-540.439 1715.87,-531.042 1708,-522 1698.14,-510.666 1687.26,-499.068 1676.4,-487.96"/>
<ellipse fill="none" stroke="#6447c8" cx="1734.28" cy="-553.254" rx="4.00002" ry="4.00002"/>
<polygon fill="#6447c8" stroke="#6447c8" points="1676.29,-487.856 1672.47,-477.577 1672.78,-484.297 1669.27,-480.738 1669.27,-480.738 1669.27,-480.738 1672.78,-484.297 1666.07,-483.899 1676.29,-487.856 1676.29,-487.856"/>
<text text-anchor="middle" x="1770" y="-526.3" font-family="Times,serif" font-size="14.00">inverse_friendships</text>
</g>
<!-- User&#45;&gt;Report -->
<g id="edge15" class="edge"><title>User&#45;&gt;Report</title>
<path fill="none" stroke="#8a2bea" d="M1868,-547.972C1868,-533.388 1868,-519.168 1868,-505.837"/>
<ellipse fill="none" stroke="#8a2bea" cx="1868" cy="-552.416" rx="4" ry="4"/>
<polygon fill="#8a2bea" stroke="#8a2bea" points="1868,-505.825 1872.5,-495.825 1868,-500.825 1868,-495.825 1868,-495.825 1868,-495.825 1868,-500.825 1863.5,-495.825 1868,-505.825 1868,-505.825"/>
</g>
<!-- User&#45;&gt;UserGroup -->
<g id="edge22" class="edge"><title>User&#45;&gt;UserGroup</title>
<path fill="none" stroke="#989fb5" d="M2023.94,-548.511C2039.22,-530.145 2054.02,-512.344 2067.49,-496.158"/>
<polygon fill="#989fb5" stroke="#989fb5" points="2023.76,-548.728 2013.91,-553.539 2020.57,-552.572 2017.37,-556.416 2017.37,-556.416 2017.37,-556.416 2020.57,-552.572 2020.83,-559.294 2023.76,-548.728 2023.76,-548.728"/>
<polygon fill="#989fb5" stroke="#989fb5" points="2067.59,-496.034 2077.45,-491.224 2070.79,-492.19 2073.99,-488.346 2073.99,-488.346 2073.99,-488.346 2070.79,-492.19 2070.53,-485.468 2067.59,-496.034 2067.59,-496.034"/>
</g>
<!-- User&#45;&gt;User -->
<g id="edge18" class="edge"><title>User&#45;&gt;User</title>
<path fill="none" stroke="#9e939c" d="M2034.16,-747.191C2039.16,-744.424 2042,-741.027 2042,-737 2042,-732.973 2039.16,-729.576 2034.16,-726.809"/>
<polygon fill="#9e939c" stroke="#9e939c" points="2033.88,-747.302 2022.92,-746.844 2029.24,-749.162 2024.6,-751.021 2024.6,-751.021 2024.6,-751.021 2029.24,-749.162 2026.27,-755.198 2033.88,-747.302 2033.88,-747.302"/>
<polygon fill="#9e939c" stroke="#9e939c" points="2033.88,-726.698 2026.27,-718.802 2029.24,-724.838 2024.6,-722.979 2024.6,-722.979 2024.6,-722.979 2029.24,-724.838 2022.92,-727.156 2033.88,-726.698 2033.88,-726.698"/>
<text text-anchor="middle" x="2061" y="-733.3" font-family="Times,serif" font-size="14.00">friends</text>
</g>
<!-- User&#45;&gt;User -->
<g id="edge20" class="edge"><title>User&#45;&gt;User</title>
<path fill="none" stroke="#9b76a5" d="M2034.85,-772.292C2061.55,-766.95 2080,-755.186 2080,-737 2080,-718.814 2061.55,-707.05 2034.85,-701.708"/>
<polygon fill="#9b76a5" stroke="#9b76a5" points="2034.53,-772.345 2023.93,-769.529 2029.6,-773.157 2024.66,-773.969 2024.66,-773.969 2024.66,-773.969 2029.6,-773.157 2025.39,-778.41 2034.53,-772.345 2034.53,-772.345"/>
<polygon fill="#9b76a5" stroke="#9b76a5" points="2034.53,-701.655 2025.39,-695.59 2029.6,-700.843 2024.66,-700.031 2024.66,-700.031 2024.66,-700.031 2029.6,-700.843 2023.93,-704.471 2034.53,-701.655 2034.53,-701.655"/>
<text text-anchor="middle" x="2122" y="-733.3" font-family="Times,serif" font-size="14.00">inverse_friends</text>
</g>
<!-- User&#45;&gt;ActorUserGroup -->
<g id="edge21" class="edge"><title>User&#45;&gt;ActorUserGroup</title>
<path fill="none" stroke="#2c78ca" d="M2032.14,-683.784C2116.53,-647.651 2211.76,-590.244 2261,-504 2300.1,-435.52 2269.3,-344.105 2240.18,-284.415"/>
<ellipse fill="none" stroke="#2c78ca" cx="2028.22" cy="-685.442" rx="4.00002" ry="4.00002"/>
<polygon fill="#2c78ca" stroke="#2c78ca" points="2240,-284.06 2239.56,-273.103 2237.77,-279.588 2235.53,-275.115 2235.53,-275.115 2235.53,-275.115 2237.77,-279.588 2231.51,-277.127 2240,-284.06 2240,-284.06"/>
</g>
<!-- Mailboxer::Message -->
<g id="node22" class="node"><title>Mailboxer::Message</title>
<ellipse fill="none" stroke="black" cx="2392" cy="-420" rx="83.2649" ry="18"/>
<text text-anchor="middle" x="2392" y="-416.3" font-family="Times,serif" font-size="14.00">Mailboxer::Message</text>
</g>
<!-- User&#45;&gt;Mailboxer::Message -->
<g id="edge13" class="edge"><title>User&#45;&gt;Mailboxer::Message</title>
<path fill="none" stroke="#0106c5" d="M2032.18,-679.373C2115.49,-645.939 2215.4,-598.288 2294,-538 2327.85,-512.034 2357.89,-472.447 2375.52,-446.644"/>
<ellipse fill="none" stroke="#0106c5" cx="2028.4" cy="-680.881" rx="4.00001" ry="4.00001"/>
<polygon fill="#0106c5" stroke="#0106c5" points="2375.65,-446.443 2384.96,-440.644 2378.44,-442.291 2381.22,-438.138 2381.22,-438.138 2381.22,-438.138 2378.44,-442.291 2377.49,-435.632 2375.65,-446.443 2375.65,-446.443"/>
<text text-anchor="middle" x="2335" y="-526.3" font-family="Times,serif" font-size="14.00">messages</text>
</g>
<!-- Mailboxer::Receipt -->
<g id="node23" class="node"><title>Mailboxer::Receipt</title>
<ellipse fill="none" stroke="black" cx="2573" cy="-420" rx="78.9404" ry="18"/>
<text text-anchor="middle" x="2573" y="-416.3" font-family="Times,serif" font-size="14.00">Mailboxer::Receipt</text>
</g>
<!-- User&#45;&gt;Mailboxer::Receipt -->
<g id="edge14" class="edge"><title>User&#45;&gt;Mailboxer::Receipt</title>
<path fill="none" stroke="#38fb12" d="M2032.76,-693.085C2161.64,-655.116 2342.16,-592.01 2484,-504 2509.69,-488.061 2534.46,-464.01 2551.32,-445.895"/>
<ellipse fill="none" stroke="#38fb12" cx="2028.57" cy="-694.312" rx="4.00001" ry="4.00001"/>
<polygon fill="#38fb12" stroke="#38fb12" points="2551.75,-445.428 2561.81,-441.072 2555.12,-441.734 2558.49,-438.039 2558.49,-438.039 2558.49,-438.039 2555.12,-441.734 2555.16,-435.007 2551.75,-445.428 2551.75,-445.428"/>
<text text-anchor="middle" x="2474.5" y="-526.3" font-family="Times,serif" font-size="14.00">receipts</text>
</g>
<!-- RequestFriendship -->
<g id="node16" class="node"><title>RequestFriendship</title>
<path fill="none" stroke="black" d="M1496,-986C1496,-986 1716,-986 1716,-986 1722,-986 1728,-992 1728,-998 1728,-998 1728,-1110 1728,-1110 1728,-1116 1722,-1122 1716,-1122 1716,-1122 1496,-1122 1496,-1122 1490,-1122 1484,-1116 1484,-1110 1484,-1110 1484,-998 1484,-998 1484,-992 1490,-986 1496,-986"/>
<text text-anchor="middle" x="1606" y="-1106.8" font-family="Times,serif" font-size="14.00">RequestFriendship</text>
<polyline fill="none" stroke="black" points="1484,-1099 1728,-1099 "/>
<text text-anchor="start" x="1492" y="-1083.8" font-family="Times,serif" font-size="14.00">id :integer</text>
<text text-anchor="start" x="1492" y="-1068.8" font-family="Times,serif" font-size="14.00">sender_id :integer</text>
<text text-anchor="start" x="1492" y="-1053.8" font-family="Times,serif" font-size="14.00">recipient_id :integer</text>
<text text-anchor="start" x="1492" y="-1038.8" font-family="Times,serif" font-size="14.00">message :text</text>
<text text-anchor="start" x="1492" y="-1023.8" font-family="Times,serif" font-size="14.00">status :character varying</text>
<text text-anchor="start" x="1492" y="-1008.8" font-family="Times,serif" font-size="14.00">created_at :timestamp without time zone</text>
<text text-anchor="start" x="1492" y="-993.8" font-family="Times,serif" font-size="14.00">updated_at :timestamp without time zone</text>
</g>
<!-- RequestFriendship&#45;&gt;Friendship -->
<g id="edge25" class="edge"><title>RequestFriendship&#45;&gt;Friendship</title>
<path fill="none" stroke="#9027d8" d="M1606,-977.788C1606,-853.687 1606,-607.935 1606,-488.847"/>
<ellipse fill="none" stroke="#9027d8" cx="1606" cy="-981.963" rx="4" ry="4"/>
<ellipse fill="#9027d8" stroke="#9027d8" cx="1606" cy="-484.842" rx="4" ry="4"/>
</g>
<!-- RequestFriendship&#45;&gt;User -->
<g id="edge23" class="edge"><title>RequestFriendship&#45;&gt;User</title>
<path fill="none" stroke="#a17f1a" d="M1667.14,-979.498C1681.31,-962.461 1697.02,-943.571 1713.23,-924.076"/>
<ellipse fill="none" stroke="#a17f1a" cx="1664.44" cy="-982.736" rx="4.00002" ry="4.00002"/>
<ellipse fill="#a17f1a" stroke="#a17f1a" cx="1715.95" cy="-920.803" rx="4.00002" ry="4.00002"/>
<text text-anchor="middle" x="1716" y="-940.3" font-family="Times,serif" font-size="14.00">sender</text>
</g>
<!-- RequestFriendship&#45;&gt;User -->
<g id="edge24" class="edge"><title>RequestFriendship&#45;&gt;User</title>
<path fill="none" stroke="#2d9b64" d="M1708.86,-980.533C1719.2,-971.453 1729.14,-961.87 1738,-952 1745.92,-943.179 1753.63,-933.808 1761.09,-924.105"/>
<ellipse fill="none" stroke="#2d9b64" cx="1705.76" cy="-983.207" rx="4.00002" ry="4.00002"/>
<ellipse fill="#2d9b64" stroke="#2d9b64" cx="1763.53" cy="-920.872" rx="4.00002" ry="4.00002"/>
<text text-anchor="middle" x="1775" y="-940.3" font-family="Times,serif" font-size="14.00">recipient</text>
</g>
<!-- PremiumUser -->
<g id="node17" class="node"><title>PremiumUser</title>
<path fill="none" stroke="black" d="M2020,-1016C2020,-1016 2240,-1016 2240,-1016 2246,-1016 2252,-1022 2252,-1028 2252,-1028 2252,-1080 2252,-1080 2252,-1086 2246,-1092 2240,-1092 2240,-1092 2020,-1092 2020,-1092 2014,-1092 2008,-1086 2008,-1080 2008,-1080 2008,-1028 2008,-1028 2008,-1022 2014,-1016 2020,-1016"/>
<text text-anchor="middle" x="2130" y="-1076.8" font-family="Times,serif" font-size="14.00">PremiumUser</text>
<polyline fill="none" stroke="black" points="2008,-1069 2252,-1069 "/>
<text text-anchor="start" x="2016" y="-1053.8" font-family="Times,serif" font-size="14.00">id :integer</text>
<text text-anchor="start" x="2016" y="-1038.8" font-family="Times,serif" font-size="14.00">created_at :timestamp without time zone</text>
<text text-anchor="start" x="2016" y="-1023.8" font-family="Times,serif" font-size="14.00">updated_at :timestamp without time zone</text>
</g>
<!-- PremiumUser&#45;&gt;User -->
<g id="edge26" class="edge"><title>PremiumUser&#45;&gt;User</title>
<path fill="none" stroke="#6791af" d="M2093.83,-1009.51C2074.88,-986.734 2050.24,-957.1 2024.21,-925.806"/>
<ellipse fill="none" stroke="#6791af" cx="2096.62" cy="-1012.86" rx="4.00002" ry="4.00002"/>
<polygon fill="#6791af" stroke="#6791af" points="2023.96,-925.506 2021.02,-914.94 2020.76,-921.662 2017.56,-917.818 2017.56,-917.818 2017.56,-917.818 2020.76,-921.662 2014.1,-920.696 2023.96,-925.506 2023.96,-925.506"/>
</g>
<!-- FreeUser -->
<g id="node18" class="node"><title>FreeUser</title>
<path fill="none" stroke="black" d="M2282,-1016C2282,-1016 2502,-1016 2502,-1016 2508,-1016 2514,-1022 2514,-1028 2514,-1028 2514,-1080 2514,-1080 2514,-1086 2508,-1092 2502,-1092 2502,-1092 2282,-1092 2282,-1092 2276,-1092 2270,-1086 2270,-1080 2270,-1080 2270,-1028 2270,-1028 2270,-1022 2276,-1016 2282,-1016"/>
<text text-anchor="middle" x="2392" y="-1076.8" font-family="Times,serif" font-size="14.00">FreeUser</text>
<polyline fill="none" stroke="black" points="2270,-1069 2514,-1069 "/>
<text text-anchor="start" x="2278" y="-1053.8" font-family="Times,serif" font-size="14.00">id :integer</text>
<text text-anchor="start" x="2278" y="-1038.8" font-family="Times,serif" font-size="14.00">created_at :timestamp without time zone</text>
<text text-anchor="start" x="2278" y="-1023.8" font-family="Times,serif" font-size="14.00">updated_at :timestamp without time zone</text>
</g>
<!-- FreeUser&#45;&gt;User -->
<g id="edge27" class="edge"><title>FreeUser&#45;&gt;User</title>
<path fill="none" stroke="#6d921e" d="M2327.45,-1011.54C2306.36,-998.139 2282.76,-983.312 2261,-970 2186.79,-924.6 2103.94,-875.464 2033.51,-834.15"/>
<ellipse fill="none" stroke="#6d921e" cx="2330.83" cy="-1013.69" rx="4.00002" ry="4.00002"/>
<polygon fill="#6d921e" stroke="#6d921e" points="2033.17,-833.951 2026.82,-825.011 2028.86,-831.422 2024.54,-828.893 2024.54,-828.893 2024.54,-828.893 2028.86,-831.422 2022.27,-832.775 2033.17,-833.951 2033.17,-833.951"/>
</g>
<!-- Discount&#45;&gt;DiscountUserGroup -->
<g id="edge28" class="edge"><title>Discount&#45;&gt;DiscountUserGroup</title>
<path fill="none" stroke="#5bdd9d" d="M1890.4,-139.404C1885.3,-131.482 1880.18,-123.543 1875.24,-115.875"/>
<ellipse fill="none" stroke="#5bdd9d" cx="1892.65" cy="-142.893" rx="4.00002" ry="4.00002"/>
<polygon fill="#5bdd9d" stroke="#5bdd9d" points="1874.95,-115.422 1873.31,-104.578 1872.24,-111.219 1869.53,-107.016 1869.53,-107.016 1869.53,-107.016 1872.24,-111.219 1865.75,-109.454 1874.95,-115.422 1874.95,-115.422"/>
</g>
</g>
</svg>
